<?xml version="1.0" encoding="utf-8"?>
<!-- Generator: Adobe Illustrator 23.1.1, SVG Export Plug-In . SVG Version: 6.00 Build 0)  -->
<svg version="1.1" id="Calque_1" xmlns="http://www.w3.org/2000/svg" xmlns:xlink="http://www.w3.org/1999/xlink" x="0px" y="0px"
	 viewBox="0 0 841.89 595.28" style="enable-background:new 0 0 841.89 595.28;" xml:space="preserve">
<style type="text/css">
	.st0{fill:#FFFFFF;stroke:#000000;stroke-linecap:round;stroke-linejoin:round;stroke-miterlimit:10;}
	.st1{fill:#FFFFFF;}
</style>
<path class="st0" d="M435.12,273.68"/>
<g>
	<line class="st1" x1="436.25" y1="273.91" x2="403.21" y2="292.88"/>
	<path class="st1" d="M403.21,293.38c-0.17,0-0.34-0.09-0.43-0.25c-0.14-0.24-0.05-0.54,0.18-0.68L436,273.47
		c0.24-0.14,0.54-0.06,0.68,0.18c0.14,0.24,0.05,0.54-0.18,0.68l-33.04,18.98C403.38,293.36,403.3,293.38,403.21,293.38z"/>
</g>
<g>
	<line class="st1" x1="438.33" y1="329.75" x2="438.33" y2="293.52"/>
	<path class="st1" d="M438.33,330.25c-0.28,0-0.5-0.22-0.5-0.5v-36.23c0-0.28,0.22-0.5,0.5-0.5s0.5,0.22,0.5,0.5v36.23
		C438.83,330.02,438.6,330.25,438.33,330.25z"/>
</g>
<g>
	<line class="st1" x1="438.33" y1="312.43" x2="405.73" y2="331.03"/>
	<path class="st1" d="M405.73,331.53c-0.17,0-0.34-0.09-0.43-0.25c-0.14-0.24-0.05-0.55,0.19-0.68l32.59-18.6
		c0.24-0.13,0.54-0.05,0.68,0.19c0.14,0.24,0.05,0.55-0.19,0.68l-32.59,18.6C405.9,331.51,405.82,331.53,405.73,331.53z"/>
</g>
<g>
	<line class="st1" x1="388.63" y1="304.47" x2="420.5" y2="322.6"/>
	<path class="st1" d="M420.5,323.1c-0.08,0-0.17-0.02-0.25-0.07l-31.87-18.13c-0.24-0.14-0.32-0.44-0.19-0.68
		c0.14-0.24,0.44-0.32,0.68-0.19l31.87,18.13c0.24,0.14,0.32,0.44,0.19,0.68C420.85,323.01,420.68,323.1,420.5,323.1z"/>
</g>
<g>
	<polyline class="st1" points="403.21,275.49 403.21,312.76 403.21,292.88 	"/>
	<path class="st1" d="M403.21,313.26c-0.28,0-0.5-0.22-0.5-0.5v-37.27c0-0.28,0.22-0.5,0.5-0.5s0.5,0.22,0.5,0.5v37.27
		C403.71,313.04,403.49,313.26,403.21,313.26z"/>
</g>
<path class="st1" d="M420.94,335.32c-18.13,0-32.88-14.75-32.88-32.88c0-18.13,14.75-32.88,32.88-32.88s32.88,14.75,32.88,32.88
	C453.82,320.57,439.07,335.32,420.94,335.32z M420.94,270.57c-17.58,0-31.88,14.3-31.88,31.88s14.3,31.88,31.88,31.88
	c17.58,0,31.88-14.3,31.88-31.88S438.52,270.57,420.94,270.57z"/>
<path class="st1" d="M420.94,337.9c-19.55,0-35.46-15.91-35.46-35.46s15.91-35.46,35.46-35.46s35.46,15.91,35.46,35.46
	S440.5,337.9,420.94,337.9z M420.94,267.98c-19,0-34.46,15.46-34.46,34.46c0,19,15.46,34.46,34.46,34.46
	c19,0,34.46-15.46,34.46-34.46C455.4,283.44,439.95,267.98,420.94,267.98z"/>
<path class="st1" d="M376.43,368.1c-0.13-0.31-0.32-0.57-0.56-0.79c-0.24-0.22-0.54-0.38-0.88-0.51c-0.34-0.12-0.73-0.18-1.16-0.18
	l0.01-0.01h-2.32v7.7h1.2v-2.67h1.12c0.43,0,0.81-0.05,1.16-0.17c0.34-0.11,0.63-0.27,0.87-0.49c0.24-0.22,0.43-0.48,0.56-0.79
	c0.13-0.31,0.2-0.66,0.2-1.04S376.56,368.4,376.43,368.1z M374.97,370.15c-0.26,0.24-0.65,0.36-1.14,0.36h-1.11v-2.78h1.11
	c0.47,0,0.85,0.12,1.12,0.36s0.42,0.59,0.42,1.04C375.37,369.57,375.24,369.91,374.97,370.15z"/>
<polygon class="st1" points="385.51,369.79 382.18,369.79 382.18,366.61 380.98,366.61 380.98,374.31 382.18,374.31 382.18,370.95 
	385.51,370.95 385.51,374.31 386.71,374.31 386.71,366.61 385.51,366.61 "/>
<polygon class="st1" points="391.21,370.49 391.21,370.48 391.21,370.47 "/>
<path class="st1" d="M398.09,368.84c-0.18-0.5-0.43-0.91-0.75-1.27c-0.32-0.35-0.7-0.62-1.14-0.8c-0.44-0.19-0.91-0.29-1.43-0.29
	c-0.52,0-0.99,0.1-1.42,0.29c-0.43,0.19-0.8,0.45-1.12,0.8c-0.32,0.35-0.57,0.77-0.75,1.27c-0.17,0.49-0.26,1.04-0.26,1.64
	c0,0.6,0.09,1.15,0.26,1.64c0.18,0.5,0.42,0.91,0.74,1.27c0.32,0.35,0.69,0.63,1.13,0.81c0.44,0.18,0.91,0.28,1.43,0.28
	s0.99-0.09,1.43-0.26c0.44-0.19,0.81-0.45,1.13-0.8c0.32-0.35,0.57-0.77,0.75-1.26c0.18-0.5,0.26-1.05,0.26-1.65
	C398.35,369.89,398.26,369.34,398.09,368.84z M396.96,371.66c-0.11,0.35-0.28,0.65-0.48,0.89c-0.21,0.24-0.46,0.43-0.75,0.56
	s-0.61,0.2-0.96,0.2c-0.34,0-0.66-0.07-0.95-0.2s-0.53-0.32-0.74-0.56c-0.21-0.24-0.37-0.54-0.48-0.89
	c-0.11-0.35-0.16-0.75-0.16-1.19l0.02-0.01c0-0.44,0.05-0.84,0.17-1.19c0.11-0.35,0.26-0.65,0.47-0.89s0.45-0.43,0.74-0.56
	c0.29-0.13,0.61-0.2,0.95-0.2c0.35,0,0.67,0.07,0.96,0.2c0.29,0.13,0.53,0.32,0.74,0.56s0.37,0.54,0.48,0.89
	c0.11,0.35,0.16,0.75,0.16,1.2C397.13,370.91,397.07,371.31,396.96,371.66z"/>
<polygon class="st1" points="402.19,367.74 404.45,367.74 404.45,374.31 405.65,374.31 405.65,367.74 407.94,367.74 407.94,366.61 
	402.19,366.61 "/>
<path class="st1" d="M418.6,368.84c-0.18-0.5-0.43-0.91-0.75-1.27c-0.32-0.35-0.7-0.62-1.14-0.8c-0.44-0.19-0.91-0.29-1.43-0.29
	c-0.52,0-0.99,0.1-1.42,0.29c-0.43,0.19-0.8,0.45-1.12,0.8c-0.32,0.35-0.57,0.77-0.75,1.27c-0.17,0.49-0.26,1.04-0.26,1.64
	c0,0.6,0.09,1.15,0.26,1.64c0.18,0.5,0.42,0.91,0.74,1.27c0.32,0.35,0.69,0.63,1.13,0.81c0.44,0.18,0.91,0.28,1.43,0.28
	s0.99-0.09,1.43-0.26c0.44-0.19,0.81-0.45,1.13-0.8c0.32-0.35,0.57-0.77,0.75-1.26s0.26-1.05,0.26-1.65
	C418.86,369.89,418.78,369.34,418.6,368.84z M417.48,371.66c-0.11,0.35-0.27,0.65-0.48,0.89c-0.21,0.24-0.46,0.43-0.75,0.56
	s-0.6,0.2-0.96,0.2c-0.34,0-0.66-0.07-0.95-0.2s-0.53-0.32-0.74-0.56c-0.21-0.24-0.38-0.54-0.48-0.89
	c-0.11-0.35-0.17-0.75-0.17-1.19l0.02-0.01c0-0.44,0.06-0.84,0.17-1.19c0.11-0.35,0.26-0.65,0.47-0.89s0.45-0.43,0.74-0.56
	c0.29-0.13,0.6-0.2,0.95-0.2c0.35,0,0.67,0.07,0.96,0.2c0.29,0.13,0.53,0.32,0.74,0.56s0.37,0.54,0.48,0.89
	c0.11,0.35,0.17,0.75,0.17,1.2C417.64,370.91,417.59,371.31,417.48,371.66z"/>
<path class="st1" d="M438.16,371.3c0.45-0.19,0.8-0.46,1.06-0.84c0.25-0.37,0.38-0.83,0.38-1.36c0-0.38-0.07-0.73-0.2-1.03
	c-0.13-0.31-0.32-0.57-0.56-0.79s-0.54-0.38-0.88-0.51c-0.34-0.12-0.73-0.18-1.15-0.18h-2.32v7.7h1.2v-2.76h1.12h0.11
	c0.04,0,0.08,0,0.11-0.01l1.5,2.78h1.34L438.16,371.3z M436.89,370.48v0.01h-1.22v-2.76h1.22c0.47,0,0.84,0.13,1.09,0.38
	c0.25,0.25,0.38,0.58,0.38,0.99c0,0.39-0.12,0.72-0.38,0.98C437.73,370.35,437.37,370.48,436.89,370.48z"/>
<path class="st1" d="M447.67,366.61h-1.2l-2.9,7.7h1.27l0.63-1.75h3.23l0.63,1.75h1.27L447.67,366.61z M445.86,371.5l0.9-2.52
	c0.04-0.12,0.09-0.24,0.12-0.36c0.03-0.12,0.07-0.23,0.1-0.32s0.05-0.17,0.08-0.22l0.02-0.09h0.02l0.02,0.09
	c0.02,0.06,0.04,0.13,0.07,0.22c0.02,0.09,0.05,0.2,0.09,0.32s0.08,0.24,0.12,0.36l0.92,2.52H445.86z"/>
<path class="st1" d="M459.75,368.1c-0.13-0.31-0.32-0.57-0.56-0.79c-0.24-0.22-0.54-0.38-0.88-0.51c-0.34-0.12-0.73-0.18-1.16-0.18
	l0.01-0.01h-2.32v7.7h1.2v-2.67h1.12c0.43,0,0.81-0.05,1.16-0.17c0.34-0.11,0.63-0.27,0.87-0.49c0.24-0.22,0.43-0.48,0.56-0.79
	c0.13-0.31,0.2-0.66,0.2-1.04S459.88,368.4,459.75,368.1z M458.3,370.15c-0.26,0.24-0.65,0.36-1.14,0.36h-1.11v-2.78h1.11
	c0.47,0,0.85,0.12,1.12,0.36s0.42,0.59,0.42,1.04C458.69,369.57,458.56,369.91,458.3,370.15z"/>
<polygon class="st1" points="468.84,369.79 465.5,369.79 465.5,366.61 464.3,366.61 464.3,374.31 465.5,374.31 465.5,370.95 
	468.84,370.95 468.84,374.31 470.04,374.31 470.04,366.61 468.84,366.61 "/>
<polygon class="st1" points="476.23,370.82 479.08,370.82 479.08,369.76 476.23,369.76 476.23,367.74 479.86,367.74 479.86,366.61 
	475.03,366.61 475.03,374.31 479.93,374.31 479.93,373.18 476.23,373.18 "/>
<path class="st1" d="M426.77,370.16v0.98h1.99c0,0,0.16,0.66-0.26,1.25c-0.12,0.17-0.28,0.32-0.45,0.45
	c-0.18,0.13-0.38,0.24-0.63,0.33s-0.52,0.13-0.83,0.13c-0.35,0-0.68-0.07-0.98-0.2s-0.55-0.32-0.76-0.56
	c-0.21-0.24-0.37-0.54-0.49-0.89c-0.12-0.35-0.19-0.75-0.19-1.2c0-0.44,0.05-0.84,0.17-1.19c0.11-0.35,0.26-0.65,0.47-0.89
	s0.45-0.43,0.74-0.56c0.29-0.13,0.61-0.2,0.96-0.2c0.42,0,0.8,0.1,1.14,0.3c0.34,0.2,0.62,0.5,0.81,0.88l1.19-0.32
	c-0.29-0.63-0.7-1.12-1.24-1.47c-0.54-0.35-1.18-0.54-1.92-0.55c-0.52,0-0.99,0.1-1.42,0.29c-0.43,0.19-0.8,0.45-1.12,0.8
	c-0.32,0.35-0.57,0.77-0.75,1.26c-0.18,0.5-0.26,1.04-0.26,1.65s0.09,1.16,0.26,1.65c0.18,0.5,0.42,0.91,0.74,1.25
	c0.32,0.34,0.69,0.61,1.12,0.79c0.43,0.18,0.9,0.28,1.41,0.28c0.28,0,0.53-0.03,0.77-0.1c0.24-0.06,0.46-0.14,0.66-0.25
	c0.2-0.11,0.36-0.22,0.51-0.34c0,0,1.39-0.76,1.4-2.93c0.02-0.22,0.02-0.44-0.02-0.65H426.77z"/>
<path class="st1" d="M326.47,353.63c-0.26,0.48-0.48,0.88-0.64,1.2c-0.16,0.32-0.28,0.58-0.36,0.78s-0.14,0.34-0.18,0.42l-0.06,0.12
	h-0.04l-0.06-0.12c-0.04-0.08-0.1-0.22-0.2-0.42s-0.22-0.46-0.38-0.78c-0.16-0.32-0.36-0.72-0.62-1.2l-3.38-6.54h-1.08v14h1.12
	v-6.78c0-0.64,0-1.28-0.02-1.92c-0.02-0.64-0.04-1.2-0.06-1.7s-0.02-0.9-0.04-1.22l-0.02-0.46h0.02l0.08,0.18l0.24,0.48
	c0.1,0.2,0.2,0.44,0.32,0.7c0.12,0.26,0.26,0.54,0.4,0.82l3.32,6.36h0.6l3.32-6.36c0.14-0.28,0.26-0.54,0.38-0.8
	c0.12-0.26,0.24-0.48,0.34-0.68l0.24-0.48l0.08-0.18h0.02l-0.02,0.48c-0.02,0.32-0.02,0.72-0.04,1.22s-0.04,1.06-0.06,1.7
	c-0.02,0.64-0.02,1.28-0.02,1.92v6.76h1.12l0.16-14.04h-1.08L326.47,353.63z"/>
<path class="st1" d="M345.83,348.87c-0.58-0.64-1.26-1.12-2.04-1.46c-0.78-0.34-1.64-0.52-2.56-0.52c-0.9,0-1.74,0.18-2.52,0.52
	c-0.78,0.34-1.46,0.82-2.04,1.46c-0.58,0.64-1.02,1.4-1.34,2.3c-0.32,0.9-0.48,1.9-0.48,3.02l0.06-0.04c0,1.1,0.16,2.1,0.48,3
	c0.32,0.9,0.76,1.66,1.32,2.3c0.56,0.64,1.24,1.14,2.02,1.48c0.78,0.32,1.62,0.5,2.54,0.5c0.9,0,1.74-0.16,2.52-0.48
	c0.78-0.34,1.46-0.82,2.04-1.46c0.58-0.64,1.02-1.4,1.34-2.3c0.32-0.9,0.48-1.9,0.48-3.02c0-1.1-0.16-2.1-0.48-3
	C346.85,350.27,346.41,349.51,345.83,348.87z M346.15,356.69c-0.26,0.76-0.62,1.42-1.08,1.96s-1.02,0.96-1.66,1.24
	s-1.34,0.42-2.1,0.42s-1.46-0.14-2.1-0.42s-1.2-0.68-1.66-1.22c-0.46-0.54-0.82-1.18-1.08-1.94c-0.26-0.76-0.4-1.62-0.4-2.58
	l0.08-0.06c0-0.96,0.12-1.82,0.38-2.58c0.26-0.76,0.62-1.4,1.08-1.92c0.46-0.52,1-0.92,1.64-1.2s1.34-0.42,2.1-0.42
	c0.74,0,1.44,0.14,2.08,0.42s1.2,0.68,1.66,1.2c0.46,0.52,0.82,1.16,1.08,1.92c0.26,0.76,0.38,1.64,0.38,2.62
	C346.55,355.07,346.41,355.93,346.15,356.69z"/>
<path class="st1" d="M359.43,353.93c0.48-0.66,0.72-1.5,0.72-2.5c0-0.66-0.12-1.26-0.34-1.8c-0.22-0.54-0.54-1-0.96-1.38
	c-0.42-0.38-0.94-0.66-1.54-0.86s-1.28-0.3-2.02-0.3h-3.54v14h1.14v-5.4h2.38c0.34,0,0.66-0.02,0.96-0.06l3.08,5.46h1.28l-3.2-5.72
	C358.27,355.07,358.95,354.59,359.43,353.93z M355.37,354.67h-2.42v-6.5h2.44c1.14,0,2.02,0.28,2.66,0.84
	c0.64,0.56,0.96,1.36,0.96,2.38c0,0.98-0.32,1.78-0.94,2.38C357.45,354.37,356.55,354.67,355.37,354.67z"/>
<path class="st1" d="M373.17,360.55c0.4-0.24,0.74-0.5,1-0.78c0,0,2.46-1.94,1.7-5.78h-4.94v1h3.94c0,0,0.51,1.44-0.6,3.4
	c-0.22,0.38-0.62,0.66-1.02,0.94c-0.4,0.28-0.86,0.52-1.38,0.7c-0.52,0.18-1.1,0.28-1.72,0.28c-0.76,0-1.46-0.14-2.1-0.42
	s-1.2-0.68-1.68-1.22c-0.48-0.54-0.84-1.18-1.1-1.94c-0.26-0.76-0.4-1.62-0.4-2.58c0-0.96,0.12-1.82,0.38-2.58
	c0.26-0.76,0.62-1.4,1.08-1.92c0.46-0.52,1-0.92,1.64-1.2c0.64-0.28,1.34-0.42,2.1-0.42c0.98,0,1.86,0.24,2.64,0.72
	c0.78,0.48,1.38,1.18,1.8,2.1l1.14-0.3c-0.5-1.12-1.22-2-2.16-2.64c-0.94-0.64-2.08-0.98-3.42-1c-0.9,0-1.74,0.18-2.52,0.52
	c-0.78,0.34-1.46,0.82-2.04,1.46c-0.58,0.64-1.02,1.4-1.34,2.3c-0.32,0.9-0.48,1.9-0.48,3.02c0,1.1,0.16,2.1,0.48,3
	c0.32,0.9,0.76,1.66,1.32,2.28s1.24,1.1,2.02,1.44c0.78,0.32,1.62,0.5,2.52,0.5c0.66,0,1.24-0.08,1.76-0.26
	C372.31,361.01,372.77,360.79,373.17,360.55z"/>
<path class="st1" d="M384.33,347.09l-5.54,14h1.2l1.58-4.08h6.58l1.58,4.08h1.2l-5.54-14H384.33z M387.79,355.99h-5.78l2.32-5.98
	c0.16-0.4,0.26-0.76,0.36-1.08c0.1-0.32,0.16-0.48,0.18-0.48h0.02c0.02,0,0.08,0.16,0.18,0.48c0.1,0.32,0.2,0.68,0.36,1.08
	L387.79,355.99z"/>
<path class="st1" d="M395.71,352.53c0-0.5,0-0.96-0.02-1.4c-0.02-0.44-0.04-0.82-0.06-1.14s-0.02-0.58-0.04-0.76l-0.02-0.28h0.04
	c0.02,0,0.16,0.22,0.42,0.68s0.66,1.02,1.14,1.74l6.4,9.7h1.04l0.08-13.98h-1.14v8.5c0,0.46,0,0.9,0.02,1.32s0.02,0.8,0.02,1.12
	s0,0.58,0,0.78v0.3h-0.02c-0.02,0-0.16-0.22-0.44-0.68c-0.28-0.46-0.66-1.02-1.12-1.7l-6.38-9.66h-1.06v14h1.14V352.53z"/>
<polygon class="st1" points="417.95,360.01 410.79,360.01 410.79,354.13 416.39,354.13 416.39,353.07 410.79,353.07 410.79,348.17 
	417.83,348.17 417.83,347.09 409.65,347.09 409.65,361.09 417.95,361.09 "/>
<path class="st1" d="M438.05,361.09l-5.8-8.34l5.28-5.66h-1.38l-4.72,5.08c-0.22,0.24-0.46,0.5-0.7,0.78
	c-0.24,0.28-0.48,0.54-0.7,0.78c-0.22,0.24-0.4,0.44-0.54,0.6l-0.22,0.24h-0.02c-0.02,0-0.02-0.3,0-0.9c0.02-0.6,0.02-1.4,0.02-2.4
	v-4.16h-1.14v13.98h1.14v-5.12l2.24-2.4l5.22,7.52H438.05z"/>
<path class="st1" d="M451.83,348.87c-0.58-0.64-1.26-1.12-2.04-1.46c-0.78-0.34-1.64-0.52-2.56-0.52c-0.9,0-1.74,0.18-2.52,0.52
	c-0.78,0.34-1.46,0.82-2.04,1.46c-0.58,0.64-1.02,1.4-1.34,2.3c-0.32,0.9-0.48,1.9-0.48,3.02l0.06-0.04c0,1.1,0.16,2.1,0.48,3
	c0.32,0.9,0.76,1.66,1.32,2.3c0.56,0.64,1.24,1.14,2.02,1.48c0.78,0.32,1.62,0.5,2.54,0.5c0.9,0,1.74-0.16,2.52-0.48
	c0.78-0.34,1.46-0.82,2.04-1.46c0.58-0.64,1.02-1.4,1.34-2.3c0.32-0.9,0.48-1.9,0.48-3.02c0-1.1-0.16-2.1-0.48-3
	C452.85,350.27,452.41,349.51,451.83,348.87z M452.15,356.69c-0.26,0.76-0.62,1.42-1.08,1.96s-1.02,0.96-1.66,1.24
	c-0.64,0.28-1.34,0.42-2.1,0.42c-0.76,0-1.46-0.14-2.1-0.42c-0.64-0.28-1.2-0.68-1.66-1.22c-0.46-0.54-0.82-1.18-1.08-1.94
	c-0.26-0.76-0.4-1.62-0.4-2.58l0.08-0.06c0-0.96,0.12-1.82,0.38-2.58c0.26-0.76,0.62-1.4,1.08-1.92c0.46-0.52,1-0.92,1.64-1.2
	c0.64-0.28,1.34-0.42,2.1-0.42c0.74,0,1.44,0.14,2.08,0.42c0.64,0.28,1.2,0.68,1.66,1.2c0.46,0.52,0.82,1.16,1.08,1.92
	c0.26,0.76,0.38,1.64,0.38,2.62C452.55,355.07,452.41,355.93,452.15,356.69z"/>
<path class="st1" d="M467.53,359.23c0.58-0.6,1.02-1.32,1.34-2.18c0.32-0.86,0.48-1.82,0.48-2.88s-0.16-2.02-0.48-2.9
	c-0.32-0.88-0.78-1.62-1.36-2.24s-1.28-1.1-2.08-1.44c-0.8-0.34-1.68-0.5-2.64-0.5h-0.04h-4.92v14h5.08c0.94,0,1.8-0.16,2.58-0.48
	C466.27,360.29,466.95,359.83,467.53,359.23z M462.95,360.01h-0.02h-3.98v-11.84h3.82c0.78,0,1.5,0.14,2.16,0.42s1.22,0.68,1.7,1.2
	c0.48,0.52,0.86,1.14,1.14,1.88s0.42,1.58,0.42,2.52c0,0.9-0.14,1.72-0.4,2.44c-0.26,0.72-0.62,1.34-1.08,1.84
	c-0.46,0.5-1.02,0.88-1.66,1.14C464.41,359.87,463.71,360.01,462.95,360.01z"/>
<path class="st1" d="M477.55,347.09l-5.54,14h1.2l1.58-4.08h6.58l1.58,4.08h1.2l-5.54-14H477.55z M481.01,355.99h-5.78l2.32-5.98
	c0.16-0.4,0.26-0.76,0.36-1.08c0.1-0.32,0.16-0.48,0.18-0.48h0.02c0.02,0,0.08,0.16,0.18,0.48c0.1,0.32,0.2,0.68,0.36,1.08
	L481.01,355.99z"/>
<polygon class="st1" points="488.96,347.09 487.83,347.09 487.83,361.09 495.91,361.09 495.91,360.01 488.96,360.01 "/>
<rect x="499.46" y="347.09" class="st1" width="1.14" height="14"/>
<path class="st1" d="M510.81,347.09h-1.06l-5.54,14h1.2l1.58-4.08h6.58l1.58,4.08h1.2L510.81,347.09z M507.42,355.99l2.32-5.98
	c0.16-0.4,0.26-0.76,0.36-1.08c0.1-0.32,0.16-0.48,0.18-0.48h0.02c0.02,0,0.08,0.16,0.18,0.48c0.1,0.32,0.2,0.68,0.36,1.08
	l2.36,5.98H507.42z"/>
<path class="st1" d="M453.57,301.52l-32.81-19c-0.24-0.14-0.54-0.06-0.68,0.18c-0.09,0.16-0.08,0.35,0.01,0.5l-16.86,9.69v19.88
	l17.29,9.84l17.82-10.17v-18.58l14.74,8.53c0.08,0.05,0.17,0.07,0.25,0.07c0.17,0,0.34-0.09,0.43-0.25
	C453.89,301.96,453.81,301.65,453.57,301.52z M425.25,312.12c0,0.55-0.45,1-1,1s-1-0.45-1-1v-15.93l-6.9,10.8
	c0,0.01-0.01,0.01-0.01,0.02c-0.01,0.02-0.02,0.03-0.03,0.04c-0.06,0.09-0.14,0.16-0.23,0.22c-0.01,0.01-0.02,0.02-0.03,0.03
	c-0.01,0.01-0.02,0.01-0.03,0.01c-0.05,0.03-0.11,0.06-0.17,0.08c-0.03,0.01-0.05,0.02-0.08,0.03c-0.08,0.02-0.16,0.03-0.24,0.03
	c0,0-0.01,0-0.01,0c0,0,0,0,0,0s0,0,0,0c0,0-0.01,0-0.01,0c-0.08,0-0.16-0.01-0.24-0.03c-0.03-0.01-0.05-0.02-0.08-0.03
	c-0.06-0.02-0.12-0.04-0.17-0.08c-0.01-0.01-0.02-0.01-0.03-0.01c-0.01-0.01-0.02-0.02-0.03-0.03c-0.08-0.06-0.16-0.13-0.23-0.22
	c-0.01-0.01-0.02-0.03-0.03-0.04c0-0.01-0.01-0.01-0.01-0.02l-6.9-10.8v15.93c0,0.55-0.45,1-1,1s-1-0.45-1-1v-19.35
	c0-0.04,0.02-0.07,0.02-0.1c0.01-0.07,0.02-0.13,0.04-0.2c0.02-0.06,0.04-0.12,0.07-0.17c0.03-0.06,0.06-0.11,0.1-0.16
	c0.04-0.05,0.09-0.1,0.15-0.14c0.03-0.02,0.04-0.05,0.07-0.07c0.02-0.02,0.05-0.02,0.08-0.03c0.06-0.03,0.12-0.05,0.19-0.07
	c0.06-0.02,0.13-0.03,0.19-0.04c0.03,0,0.05-0.02,0.08-0.02c0.04,0,0.07,0.02,0.1,0.02c0.07,0.01,0.13,0.02,0.2,0.04
	c0.06,0.02,0.12,0.04,0.17,0.08c0.06,0.03,0.11,0.06,0.15,0.1c0.05,0.04,0.1,0.09,0.14,0.15c0.02,0.03,0.05,0.04,0.07,0.07
	l7.9,12.36l7.9-12.36c0.02-0.03,0.05-0.05,0.07-0.07c0.04-0.05,0.09-0.1,0.14-0.15c0.05-0.04,0.1-0.08,0.16-0.11
	c0.05-0.03,0.11-0.05,0.17-0.07c0.07-0.02,0.13-0.03,0.2-0.04c0.04,0,0.07-0.02,0.1-0.02c0.03,0,0.05,0.01,0.08,0.02
	c0.07,0.01,0.13,0.02,0.2,0.04c0.07,0.02,0.13,0.04,0.19,0.07c0.02,0.01,0.05,0.01,0.08,0.03c0.03,0.02,0.05,0.05,0.07,0.07
	c0.05,0.04,0.1,0.09,0.15,0.14c0.04,0.05,0.07,0.1,0.1,0.15c0.03,0.06,0.06,0.11,0.08,0.17c0.02,0.07,0.03,0.13,0.04,0.2
	c0,0.04,0.02,0.07,0.02,0.1V312.12z M435.79,312.87c-0.19,0.17-0.43,0.25-0.66,0.25c-0.28,0-0.55-0.11-0.75-0.34l-6.27-7.11
	c-0.37-0.41-0.33-1.05,0.09-1.41c0.41-0.36,1.05-0.33,1.41,0.09l6.27,7.11C436.24,311.87,436.2,312.5,435.79,312.87z M435.88,293.43
	l-8.24,9.36c-0.2,0.22-0.47,0.34-0.75,0.34c-0.24,0-0.47-0.08-0.66-0.25c-0.41-0.37-0.45-1-0.09-1.41l8.24-9.36
	c0.37-0.42,1-0.45,1.41-0.09S436.24,293.01,435.88,293.43z"/>
</svg>
