<?xml version="1.0" encoding="utf-8"?>
<!-- Generator: Adobe Illustrator 28.1.0, SVG Export Plug-In . SVG Version: 6.00 Build 0)  -->
<svg version="1.1" id="Calque_1" xmlns="http://www.w3.org/2000/svg" xmlns:xlink="http://www.w3.org/1999/xlink" x="0px" y="0px"
	 viewBox="0 0 400 400" style="enable-background:new 0 0 400 400;" xml:space="preserve">
<style type="text/css">
	.st0{fill:#FFFFFF;stroke:#020203;stroke-linecap:round;stroke-linejoin:round;stroke-miterlimit:10;}
	.st1{fill:none;}
	.st2{fill:#FFFFFF;}
</style>
<path class="st0" d="M252.47,106.17"/>
<g>
	<line class="st1" x1="256.2" y1="106.93" x2="146.96" y2="169.65"/>
	<path class="st2" d="M146.96,171.31c-0.56,0-1.12-0.3-1.42-0.83c-0.46-0.79-0.17-1.79,0.6-2.25l109.24-62.76
		c0.79-0.46,1.79-0.2,2.25,0.6c0.46,0.79,0.17,1.79-0.6,2.25l-109.24,62.76C147.52,171.24,147.26,171.31,146.96,171.31z"/>
</g>
<g>
	<line class="st1" x1="263.08" y1="291.56" x2="263.08" y2="171.77"/>
	<path class="st2" d="M263.08,293.21c-0.93,0-1.65-0.73-1.65-1.65V171.77c0-0.93,0.73-1.65,1.65-1.65s1.65,0.73,1.65,1.65v119.79
		C264.73,292.45,263.97,293.21,263.08,293.21z"/>
</g>
<g>
	<line class="st1" x1="263.08" y1="234.29" x2="155.29" y2="295.79"/>
	<path class="st2" d="M155.29,297.45c-0.56,0-1.12-0.3-1.42-0.83c-0.46-0.79-0.17-1.82,0.63-2.25l107.76-61.5
		c0.79-0.43,1.79-0.17,2.25,0.63c0.46,0.79,0.17,1.82-0.63,2.25l-107.76,61.5C155.85,297.38,155.59,297.45,155.29,297.45z"/>
</g>
<g>
	<line class="st1" x1="98.75" y1="207.97" x2="204.13" y2="267.92"/>
	<path class="st2" d="M204.13,269.57c-0.26,0-0.56-0.07-0.83-0.23L97.92,209.4c-0.79-0.46-1.06-1.45-0.63-2.25
		c0.46-0.79,1.45-1.06,2.25-0.63l105.38,59.95c0.79,0.46,1.06,1.45,0.63,2.25C205.28,269.28,204.72,269.57,204.13,269.57z"/>
</g>
<g>
	<polyline class="st2" points="146.96,112.16 146.96,235.38 146.96,169.65 	"/>
	<path class="st2" d="M146.96,237.04c-0.93,0-1.65-0.73-1.65-1.65V112.16c0-0.93,0.73-1.65,1.65-1.65c0.93,0,1.65,0.73,1.65,1.65
		v123.23C148.61,236.31,147.88,237.04,146.96,237.04z"/>
</g>
<path class="st2" d="M205.58,309.98c-59.95,0-108.71-48.77-108.71-108.71S145.64,92.55,205.58,92.55S314.3,141.32,314.3,201.26
	S265.53,309.98,205.58,309.98z M205.58,95.89c-58.13,0-105.41,47.28-105.41,105.41S147.45,306.7,205.58,306.7
	c58.13,0,105.41-47.28,105.41-105.41S263.71,95.89,205.58,95.89z"/>
<path class="st2" d="M205.58,318.51c-64.64,0-117.25-52.6-117.25-117.25s52.6-117.25,117.25-117.25s117.25,52.6,117.25,117.25
	S270.25,318.51,205.58,318.51z M205.58,87.32c-62.82,0-113.94,51.12-113.94,113.94S142.76,315.2,205.58,315.2
	s113.94-51.12,113.94-113.94S268.44,87.32,205.58,87.32z"/>
<path class="st2" d="M313.47,198.22L204.99,135.4c-0.79-0.46-1.79-0.2-2.25,0.6c-0.3,0.53-0.26,1.16,0.03,1.65l-55.75,32.04v65.73
	l57.17,32.54l58.92-33.63v-61.43l48.74,28.2c0.26,0.17,0.56,0.23,0.83,0.23c0.56,0,1.12-0.3,1.42-0.83
	C314.53,199.68,314.26,198.65,313.47,198.22z M219.83,233.27c0,1.82-1.49,3.31-3.31,3.31s-3.31-1.49-3.31-3.31V180.6l-22.81,35.71
	c0,0.03-0.03,0.03-0.03,0.07c-0.03,0.07-0.07,0.1-0.1,0.13c-0.2,0.3-0.46,0.53-0.76,0.73c-0.03,0.03-0.07,0.07-0.1,0.1
	s-0.07,0.03-0.1,0.03c-0.17,0.1-0.36,0.2-0.56,0.26c-0.1,0.03-0.17,0.07-0.26,0.1c-0.26,0.07-0.53,0.1-0.79,0.1h-0.03l0,0l0,0h-0.03
	c-0.26,0-0.53-0.03-0.79-0.1c-0.1-0.03-0.17-0.07-0.26-0.1c-0.2-0.07-0.4-0.13-0.56-0.26c-0.03-0.03-0.07-0.03-0.1-0.03
	c-0.03-0.03-0.07-0.07-0.1-0.1c-0.26-0.2-0.53-0.43-0.76-0.73c-0.03-0.03-0.07-0.1-0.1-0.13c0-0.03-0.03-0.03-0.03-0.07L162.1,180.6
	v52.67c0,1.82-1.49,3.31-3.31,3.31s-3.31-1.49-3.31-3.31v-63.98c0-0.13,0.07-0.23,0.07-0.33c0.03-0.23,0.07-0.43,0.13-0.66
	c0.07-0.2,0.13-0.4,0.23-0.56c0.1-0.2,0.2-0.36,0.33-0.53c0.13-0.17,0.3-0.33,0.5-0.46c0.1-0.07,0.13-0.17,0.23-0.23
	c0.07-0.07,0.17-0.07,0.26-0.1c0.2-0.1,0.4-0.17,0.63-0.23c0.2-0.07,0.43-0.1,0.63-0.13c0.1,0,0.17-0.07,0.26-0.07
	c0.13,0,0.23,0.07,0.33,0.07c0.23,0.03,0.43,0.07,0.66,0.13c0.2,0.07,0.4,0.13,0.56,0.26c0.2,0.1,0.36,0.2,0.5,0.33
	c0.17,0.13,0.33,0.3,0.46,0.5c0.07,0.1,0.17,0.13,0.23,0.23l26.12,40.87l26.12-40.87c0.07-0.1,0.17-0.17,0.23-0.23
	c0.13-0.17,0.3-0.33,0.46-0.5c0.17-0.13,0.33-0.26,0.53-0.36c0.17-0.1,0.36-0.17,0.56-0.23c0.23-0.07,0.43-0.1,0.66-0.13
	c0.13,0,0.23-0.07,0.33-0.07c0.1,0,0.17,0.03,0.26,0.07c0.23,0.03,0.43,0.07,0.66,0.13c0.23,0.07,0.43,0.13,0.63,0.23
	c0.07,0.03,0.17,0.03,0.26,0.1c0.1,0.07,0.17,0.17,0.23,0.23c0.17,0.13,0.33,0.3,0.5,0.46c0.13,0.17,0.23,0.33,0.33,0.5
	c0.1,0.2,0.2,0.36,0.26,0.56c0.07,0.23,0.1,0.43,0.13,0.66c0,0.13,0.07,0.23,0.07,0.33v64.01H219.83z M254.68,235.75
	c-0.63,0.56-1.42,0.83-2.18,0.83c-0.93,0-1.82-0.36-2.48-1.12l-20.73-23.51c-1.22-1.36-1.09-3.47,0.3-4.66
	c1.36-1.19,3.47-1.09,4.66,0.3l20.73,23.51C256.17,232.44,256.04,234.53,254.68,235.75z M254.98,171.47l-27.24,30.95
	c-0.66,0.73-1.55,1.12-2.48,1.12c-0.79,0-1.55-0.26-2.18-0.83c-1.36-1.22-1.49-3.31-0.3-4.66l27.24-30.95
	c1.22-1.39,3.31-1.49,4.66-0.3C256.04,168,256.17,170.08,254.98,171.47z"/>
</svg>
