<?xml version="1.0" encoding="utf-8"?>
<!-- Generator: Adobe Illustrator 23.1.1, SVG Export Plug-In . SVG Version: 6.00 Build 0)  -->
<svg version="1.1" id="Calque_1" xmlns="http://www.w3.org/2000/svg" xmlns:xlink="http://www.w3.org/1999/xlink" x="0px" y="0px"
	 viewBox="0 0 841.89 595.28" style="enable-background:new 0 0 841.89 595.28;" xml:space="preserve">
<style type="text/css">
	.st0{stroke:#000000;stroke-linecap:round;stroke-linejoin:round;stroke-miterlimit:10;}
	.st1{fill:none;stroke:#000000;stroke-linecap:round;stroke-linejoin:round;stroke-miterlimit:10;}
	.st2{fill:none;}
</style>
<path class="st0" d="M435.12,264.33"/>
<line class="st0" x1="436.25" y1="264.56" x2="403.21" y2="283.54"/>
<line class="st0" x1="438.33" y1="320.4" x2="438.33" y2="284.17"/>
<line class="st0" x1="438.33" y1="303.08" x2="405.73" y2="321.68"/>
<line class="st0" x1="388.63" y1="295.12" x2="420.5" y2="313.25"/>
<polyline class="st0" points="403.21,266.14 403.21,303.41 403.21,283.54 "/>
<circle class="st1" cx="420.94" cy="293.09" r="32.38"/>
<circle class="st1" cx="420.94" cy="293.09" r="34.96"/>
<g>
	<path class="st2" d="M451.09,340.24c-0.46-0.52-1.02-0.92-1.66-1.2c-0.64-0.28-1.34-0.42-2.08-0.42c-0.76,0-1.46,0.14-2.1,0.42
		c-0.64,0.28-1.18,0.68-1.64,1.2c-0.46,0.52-0.82,1.16-1.08,1.92c-0.26,0.76-0.38,1.62-0.38,2.58l-0.08,0.06
		c0,0.96,0.14,1.82,0.4,2.58c0.26,0.76,0.62,1.4,1.08,1.94c0.46,0.54,1.02,0.94,1.66,1.22c0.64,0.28,1.34,0.42,2.1,0.42
		c0.76,0,1.46-0.14,2.1-0.42c0.64-0.28,1.2-0.7,1.66-1.24s0.82-1.2,1.08-1.96c0.26-0.76,0.4-1.62,0.4-2.56
		c0-0.98-0.12-1.86-0.38-2.62C451.91,341.4,451.55,340.76,451.09,340.24z"/>
	<path class="st2" d="M447.28,359.26c-0.03-0.12-0.07-0.23-0.09-0.32c-0.02-0.09-0.04-0.17-0.07-0.22l-0.02-0.09h-0.02l-0.02,0.09
		c-0.02,0.06-0.04,0.13-0.08,0.22s-0.07,0.2-0.1,0.32c-0.03,0.12-0.08,0.24-0.12,0.36l-0.9,2.52h2.46l-0.92-2.52
		C447.36,359.51,447.31,359.39,447.28,359.26z"/>
	<path class="st2" d="M359.01,342.04c0-1.02-0.32-1.82-0.96-2.38c-0.64-0.56-1.52-0.84-2.66-0.84h-2.44v6.5h2.42
		c1.18,0,2.08-0.3,2.7-0.9C358.69,343.82,359.01,343.02,359.01,342.04z"/>
	<path class="st2" d="M345.09,340.24c-0.46-0.52-1.02-0.92-1.66-1.2s-1.34-0.42-2.08-0.42c-0.76,0-1.46,0.14-2.1,0.42
		s-1.18,0.68-1.64,1.2c-0.46,0.52-0.82,1.16-1.08,1.92c-0.26,0.76-0.38,1.62-0.38,2.58l-0.08,0.06c0,0.96,0.14,1.82,0.4,2.58
		c0.26,0.76,0.62,1.4,1.08,1.94c0.46,0.54,1.02,0.94,1.66,1.22s1.34,0.42,2.1,0.42s1.46-0.14,2.1-0.42s1.2-0.7,1.66-1.24
		s0.82-1.2,1.08-1.96c0.26-0.76,0.4-1.62,0.4-2.56c0-0.98-0.12-1.86-0.38-2.62C345.91,341.4,345.55,340.76,345.09,340.24z"/>
	<path class="st2" d="M437.98,358.77c-0.25-0.25-0.62-0.38-1.09-0.38h-1.22v2.76h1.22v-0.01c0.47,0,0.84-0.13,1.09-0.4
		c0.25-0.26,0.38-0.59,0.38-0.98C438.36,359.35,438.24,359.02,437.98,358.77z"/>
	<path class="st2" d="M396.48,359.03c-0.21-0.24-0.45-0.43-0.74-0.56c-0.29-0.13-0.61-0.2-0.96-0.2c-0.34,0-0.66,0.07-0.95,0.2
		c-0.29,0.13-0.53,0.32-0.74,0.56s-0.36,0.54-0.47,0.89c-0.11,0.35-0.17,0.75-0.17,1.19l-0.02,0.01c0,0.44,0.05,0.84,0.16,1.19
		c0.11,0.35,0.28,0.65,0.48,0.89c0.21,0.24,0.45,0.43,0.74,0.56s0.6,0.2,0.95,0.2c0.35,0,0.67-0.07,0.96-0.2s0.54-0.32,0.75-0.56
		c0.21-0.24,0.37-0.54,0.48-0.89c0.11-0.35,0.16-0.75,0.16-1.19c0-0.45-0.05-0.85-0.16-1.2
		C396.85,359.57,396.69,359.28,396.48,359.03z"/>
	<path class="st2" d="M373.83,358.38h-1.11v2.78h1.11c0.5,0,0.88-0.12,1.14-0.36c0.26-0.24,0.4-0.58,0.4-1.01
		c0-0.45-0.14-0.8-0.42-1.04S374.3,358.38,373.83,358.38z"/>
	<path class="st2" d="M416.99,359.03c-0.21-0.24-0.45-0.43-0.74-0.56c-0.29-0.13-0.61-0.2-0.96-0.2c-0.34,0-0.66,0.07-0.95,0.2
		c-0.29,0.13-0.53,0.32-0.74,0.56s-0.36,0.54-0.47,0.89c-0.11,0.35-0.17,0.75-0.17,1.19l-0.02,0.01c0,0.44,0.06,0.84,0.17,1.19
		c0.11,0.35,0.27,0.65,0.48,0.89c0.21,0.24,0.45,0.43,0.74,0.56s0.61,0.2,0.95,0.2c0.35,0,0.67-0.07,0.96-0.2s0.54-0.32,0.75-0.56
		c0.21-0.24,0.37-0.54,0.48-0.89c0.11-0.35,0.17-0.75,0.17-1.19c0-0.45-0.05-0.85-0.17-1.2
		C417.37,359.57,417.2,359.28,416.99,359.03z"/>
	<path class="st2" d="M384.89,339.1h-0.02c-0.02,0-0.08,0.16-0.18,0.48c-0.1,0.32-0.2,0.68-0.36,1.08l-2.32,5.98h5.78l-2.36-5.98
		c-0.16-0.4-0.26-0.76-0.36-1.08C384.97,339.26,384.91,339.1,384.89,339.1z"/>
	<path class="st2" d="M457.15,358.38h-1.11v2.78h1.11c0.5,0,0.88-0.12,1.14-0.36c0.26-0.24,0.4-0.58,0.4-1.01
		c0-0.45-0.14-0.8-0.42-1.04S457.63,358.38,457.15,358.38z"/>
	<path class="st2" d="M478.11,339.1h-0.02c-0.02,0-0.08,0.16-0.18,0.48c-0.1,0.32-0.2,0.68-0.36,1.08l-2.32,5.98h5.78l-2.36-5.98
		c-0.16-0.4-0.26-0.76-0.36-1.08C478.19,339.26,478.13,339.1,478.11,339.1z"/>
	<path class="st2" d="M510.49,339.58c-0.1-0.32-0.16-0.48-0.18-0.48h-0.02c-0.02,0-0.08,0.16-0.18,0.48
		c-0.1,0.32-0.2,0.68-0.36,1.08l-2.32,5.98h5.78l-2.36-5.98C510.69,340.26,510.59,339.9,510.49,339.58z"/>
	<path class="st2" d="M467.79,347.28c0.26-0.72,0.4-1.54,0.4-2.44c0-0.94-0.14-1.78-0.42-2.52s-0.66-1.36-1.14-1.88
		c-0.48-0.52-1.04-0.92-1.7-1.2s-1.38-0.42-2.16-0.42h-3.82v11.84h3.98h0.02c0.76,0,1.46-0.14,2.1-0.4c0.64-0.26,1.2-0.64,1.66-1.14
		C467.17,348.62,467.53,348,467.79,347.28z"/>
	<path d="M375.87,357.96c-0.24-0.22-0.54-0.38-0.88-0.51c-0.34-0.12-0.73-0.18-1.16-0.18l0.01-0.01h-2.32v7.7h1.2v-2.67h1.12
		c0.43,0,0.81-0.05,1.16-0.17c0.34-0.11,0.63-0.27,0.87-0.49c0.24-0.22,0.43-0.48,0.56-0.79c0.13-0.31,0.2-0.66,0.2-1.04
		s-0.07-0.74-0.2-1.04C376.29,358.44,376.11,358.18,375.87,357.96z M374.97,360.81c-0.26,0.24-0.65,0.36-1.14,0.36h-1.11v-2.78h1.11
		c0.47,0,0.85,0.12,1.12,0.36s0.42,0.59,0.42,1.04C375.37,360.22,375.24,360.56,374.97,360.81z"/>
	<polygon points="385.51,360.44 382.18,360.44 382.18,357.26 380.98,357.26 380.98,364.96 382.18,364.96 382.18,361.6 385.51,361.6 
		385.51,364.96 386.71,364.96 386.71,357.26 385.51,357.26 	"/>
	<polygon points="391.21,361.15 391.21,361.13 391.21,361.12 	"/>
	<path d="M397.34,358.23c-0.32-0.35-0.7-0.62-1.14-0.8c-0.44-0.19-0.91-0.29-1.43-0.29c-0.52,0-0.99,0.1-1.42,0.29
		c-0.43,0.19-0.8,0.45-1.12,0.8c-0.32,0.35-0.57,0.77-0.75,1.27c-0.17,0.49-0.26,1.04-0.26,1.64c0,0.6,0.09,1.15,0.26,1.64
		c0.18,0.5,0.42,0.91,0.74,1.27c0.32,0.35,0.69,0.63,1.13,0.81c0.44,0.18,0.91,0.28,1.43,0.28s0.99-0.09,1.43-0.26
		c0.44-0.19,0.81-0.45,1.13-0.8c0.32-0.35,0.57-0.77,0.75-1.26c0.18-0.5,0.26-1.05,0.26-1.65c0-0.61-0.09-1.16-0.26-1.65
		C397.91,359,397.66,358.58,397.34,358.23z M396.96,362.31c-0.11,0.35-0.28,0.65-0.48,0.89c-0.21,0.24-0.46,0.43-0.75,0.56
		s-0.61,0.2-0.96,0.2c-0.34,0-0.66-0.07-0.95-0.2s-0.53-0.32-0.74-0.56c-0.21-0.24-0.37-0.54-0.48-0.89
		c-0.11-0.35-0.16-0.75-0.16-1.19l0.02-0.01c0-0.44,0.05-0.84,0.17-1.19c0.11-0.35,0.26-0.65,0.47-0.89s0.45-0.43,0.74-0.56
		c0.29-0.13,0.61-0.2,0.95-0.2c0.35,0,0.67,0.07,0.96,0.2c0.29,0.13,0.53,0.32,0.74,0.56s0.37,0.54,0.48,0.89
		c0.11,0.35,0.16,0.75,0.16,1.2C397.13,361.56,397.07,361.96,396.96,362.31z"/>
	<polygon points="402.19,358.4 404.45,358.4 404.45,364.96 405.65,364.96 405.65,358.4 407.94,358.4 407.94,357.26 402.19,357.26 	
		"/>
	<polygon points="411.73,361.15 411.73,361.13 411.73,361.12 	"/>
	<path d="M417.85,358.23c-0.32-0.35-0.7-0.62-1.14-0.8c-0.44-0.19-0.91-0.29-1.43-0.29c-0.52,0-0.99,0.1-1.42,0.29
		c-0.43,0.19-0.8,0.45-1.12,0.8c-0.32,0.35-0.57,0.77-0.75,1.27c-0.17,0.49-0.26,1.04-0.26,1.64c0,0.6,0.09,1.15,0.26,1.64
		c0.18,0.5,0.42,0.91,0.74,1.27c0.32,0.35,0.69,0.63,1.13,0.81c0.44,0.18,0.91,0.28,1.43,0.28s0.99-0.09,1.43-0.26
		c0.44-0.19,0.81-0.45,1.13-0.8c0.32-0.35,0.57-0.77,0.75-1.26s0.26-1.05,0.26-1.65c0-0.61-0.09-1.16-0.26-1.65
		S418.17,358.58,417.85,358.23z M417.48,362.31c-0.11,0.35-0.27,0.65-0.48,0.89c-0.21,0.24-0.46,0.43-0.75,0.56s-0.6,0.2-0.96,0.2
		c-0.34,0-0.66-0.07-0.95-0.2s-0.53-0.32-0.74-0.56c-0.21-0.24-0.38-0.54-0.48-0.89c-0.11-0.35-0.17-0.75-0.17-1.19l0.02-0.01
		c0-0.44,0.06-0.84,0.17-1.19c0.11-0.35,0.26-0.65,0.47-0.89s0.45-0.43,0.74-0.56c0.29-0.13,0.6-0.2,0.95-0.2
		c0.35,0,0.67,0.07,0.96,0.2c0.29,0.13,0.53,0.32,0.74,0.56s0.37,0.54,0.48,0.89c0.11,0.35,0.17,0.75,0.17,1.2
		C417.64,361.56,417.59,361.96,417.48,362.31z"/>
	<path d="M439.21,361.11c0.25-0.37,0.38-0.83,0.38-1.36c0-0.38-0.07-0.73-0.2-1.03c-0.13-0.31-0.32-0.57-0.56-0.79
		s-0.54-0.38-0.88-0.51c-0.34-0.12-0.73-0.18-1.15-0.18h-2.32v7.7h1.2v-2.76h1.12h0.11c0.04,0,0.08,0,0.11-0.01l1.5,2.78h1.34
		l-1.69-3C438.61,361.76,438.96,361.49,439.21,361.11z M436.89,361.14v0.01h-1.22v-2.76h1.22c0.47,0,0.84,0.13,1.09,0.38
		c0.25,0.25,0.38,0.58,0.38,0.99c0,0.39-0.12,0.72-0.38,0.98C437.73,361,437.37,361.14,436.89,361.14z"/>
	<path d="M446.47,357.26l-2.9,7.7h1.27l0.63-1.75h3.23l0.63,1.75h1.27l-2.92-7.7H446.47z M445.86,362.15l0.9-2.52
		c0.04-0.12,0.09-0.24,0.12-0.36c0.03-0.12,0.07-0.23,0.1-0.32s0.05-0.17,0.08-0.22l0.02-0.09h0.02l0.02,0.09
		c0.02,0.06,0.04,0.13,0.07,0.22c0.02,0.09,0.05,0.2,0.09,0.32s0.08,0.24,0.12,0.36l0.92,2.52H445.86z"/>
	<path d="M459.19,357.96c-0.24-0.22-0.54-0.38-0.88-0.51c-0.34-0.12-0.73-0.18-1.16-0.18l0.01-0.01h-2.32v7.7h1.2v-2.67h1.12
		c0.43,0,0.81-0.05,1.16-0.17c0.34-0.11,0.63-0.27,0.87-0.49c0.24-0.22,0.43-0.48,0.56-0.79c0.13-0.31,0.2-0.66,0.2-1.04
		s-0.07-0.74-0.2-1.04C459.62,358.44,459.43,358.18,459.19,357.96z M458.3,360.81c-0.26,0.24-0.65,0.36-1.14,0.36h-1.11v-2.78h1.11
		c0.47,0,0.85,0.12,1.12,0.36s0.42,0.59,0.42,1.04C458.69,360.22,458.56,360.56,458.3,360.81z"/>
	<polygon points="468.84,360.44 465.5,360.44 465.5,357.26 464.3,357.26 464.3,364.96 465.5,364.96 465.5,361.6 468.84,361.6 
		468.84,364.96 470.04,364.96 470.04,357.26 468.84,357.26 	"/>
	<polygon points="476.23,361.48 479.08,361.48 479.08,360.41 476.23,360.41 476.23,358.4 479.86,358.4 479.86,357.26 475.03,357.26 
		475.03,364.96 479.93,364.96 479.93,363.83 476.23,363.83 	"/>
	<path d="M426.77,360.82v0.98h1.99c0,0,0.16,0.66-0.26,1.25c-0.12,0.17-0.28,0.32-0.45,0.45c-0.18,0.13-0.38,0.24-0.63,0.33
		s-0.52,0.13-0.83,0.13c-0.35,0-0.68-0.07-0.98-0.2s-0.55-0.32-0.76-0.56c-0.21-0.24-0.37-0.54-0.49-0.89
		c-0.12-0.35-0.19-0.75-0.19-1.2c0-0.44,0.05-0.84,0.17-1.19c0.11-0.35,0.26-0.65,0.47-0.89s0.45-0.43,0.74-0.56
		c0.29-0.13,0.61-0.2,0.96-0.2c0.42,0,0.8,0.1,1.14,0.3c0.34,0.2,0.62,0.5,0.81,0.88l1.19-0.32c-0.29-0.63-0.7-1.12-1.24-1.47
		c-0.54-0.35-1.18-0.54-1.92-0.55c-0.52,0-0.99,0.1-1.42,0.29c-0.43,0.19-0.8,0.45-1.12,0.8c-0.32,0.35-0.57,0.77-0.75,1.26
		c-0.18,0.5-0.26,1.04-0.26,1.65s0.09,1.16,0.26,1.65c0.18,0.5,0.42,0.91,0.74,1.25c0.32,0.34,0.69,0.61,1.12,0.79
		c0.43,0.18,0.9,0.28,1.41,0.28c0.28,0,0.53-0.03,0.77-0.1c0.24-0.06,0.46-0.14,0.66-0.25c0.2-0.11,0.36-0.22,0.51-0.34
		c0,0,1.39-0.76,1.4-2.93c0.02-0.22,0.02-0.44-0.02-0.65H426.77z"/>
	<path d="M326.47,344.28c-0.26,0.48-0.48,0.88-0.64,1.2c-0.16,0.32-0.28,0.58-0.36,0.78s-0.14,0.34-0.18,0.42l-0.06,0.12h-0.04
		l-0.06-0.12c-0.04-0.08-0.1-0.22-0.2-0.42s-0.22-0.46-0.38-0.78c-0.16-0.32-0.36-0.72-0.62-1.2l-3.38-6.54h-1.08v14h1.12v-6.78
		c0-0.64,0-1.28-0.02-1.92c-0.02-0.64-0.04-1.2-0.06-1.7s-0.02-0.9-0.04-1.22l-0.02-0.46h0.02l0.08,0.18l0.24,0.48
		c0.1,0.2,0.2,0.44,0.32,0.7c0.12,0.26,0.26,0.54,0.4,0.82l3.32,6.36h0.6l3.32-6.36c0.14-0.28,0.26-0.54,0.38-0.8
		c0.12-0.26,0.24-0.48,0.34-0.68l0.24-0.48l0.08-0.18h0.02l-0.02,0.48c-0.02,0.32-0.02,0.72-0.04,1.22s-0.04,1.06-0.06,1.7
		c-0.02,0.64-0.02,1.28-0.02,1.92v6.76h1.12l0.16-14.04h-1.08L326.47,344.28z"/>
	<path d="M345.83,339.52c-0.58-0.64-1.26-1.12-2.04-1.46c-0.78-0.34-1.64-0.52-2.56-0.52c-0.9,0-1.74,0.18-2.52,0.52
		c-0.78,0.34-1.46,0.82-2.04,1.46c-0.58,0.64-1.02,1.4-1.34,2.3c-0.32,0.9-0.48,1.9-0.48,3.02l0.06-0.04c0,1.1,0.16,2.1,0.48,3
		c0.32,0.9,0.76,1.66,1.32,2.3c0.56,0.64,1.24,1.14,2.02,1.48c0.78,0.32,1.62,0.5,2.54,0.5c0.9,0,1.74-0.16,2.52-0.48
		c0.78-0.34,1.46-0.82,2.04-1.46c0.58-0.64,1.02-1.4,1.34-2.3c0.32-0.9,0.48-1.9,0.48-3.02c0-1.1-0.16-2.1-0.48-3
		C346.85,340.92,346.41,340.16,345.83,339.52z M346.15,347.34c-0.26,0.76-0.62,1.42-1.08,1.96s-1.02,0.96-1.66,1.24
		s-1.34,0.42-2.1,0.42s-1.46-0.14-2.1-0.42s-1.2-0.68-1.66-1.22c-0.46-0.54-0.82-1.18-1.08-1.94c-0.26-0.76-0.4-1.62-0.4-2.58
		l0.08-0.06c0-0.96,0.12-1.82,0.38-2.58c0.26-0.76,0.62-1.4,1.08-1.92c0.46-0.52,1-0.92,1.64-1.2s1.34-0.42,2.1-0.42
		c0.74,0,1.44,0.14,2.08,0.42s1.2,0.68,1.66,1.2c0.46,0.52,0.82,1.16,1.08,1.92c0.26,0.76,0.38,1.64,0.38,2.62
		C346.55,345.72,346.41,346.58,346.15,347.34z"/>
	<path d="M359.43,344.58c0.48-0.66,0.72-1.5,0.72-2.5c0-0.66-0.12-1.26-0.34-1.8c-0.22-0.54-0.54-1-0.96-1.38
		c-0.42-0.38-0.94-0.66-1.54-0.86s-1.28-0.3-2.02-0.3h-3.54v14h1.14v-5.4h2.38c0.34,0,0.66-0.02,0.96-0.06l3.08,5.46h1.28l-3.2-5.72
		C358.27,345.72,358.95,345.24,359.43,344.58z M355.37,345.32h-2.42v-6.5h2.44c1.14,0,2.02,0.28,2.66,0.84
		c0.64,0.56,0.96,1.36,0.96,2.38c0,0.98-0.32,1.78-0.94,2.38C357.45,345.02,356.55,345.32,355.37,345.32z"/>
	<path d="M373.17,351.2c0.4-0.24,0.74-0.5,1-0.78c0,0,2.46-1.94,1.7-5.78h-4.94v1h3.94c0,0,0.51,1.44-0.6,3.4
		c-0.22,0.38-0.62,0.66-1.02,0.94c-0.4,0.28-0.86,0.52-1.38,0.7c-0.52,0.18-1.1,0.28-1.72,0.28c-0.76,0-1.46-0.14-2.1-0.42
		s-1.2-0.68-1.68-1.22c-0.48-0.54-0.84-1.18-1.1-1.94c-0.26-0.76-0.4-1.62-0.4-2.58c0-0.96,0.12-1.82,0.38-2.58
		c0.26-0.76,0.62-1.4,1.08-1.92c0.46-0.52,1-0.92,1.64-1.2c0.64-0.28,1.34-0.42,2.1-0.42c0.98,0,1.86,0.24,2.64,0.72
		c0.78,0.48,1.38,1.18,1.8,2.1l1.14-0.3c-0.5-1.12-1.22-2-2.16-2.64c-0.94-0.64-2.08-0.98-3.42-1c-0.9,0-1.74,0.18-2.52,0.52
		c-0.78,0.34-1.46,0.82-2.04,1.46c-0.58,0.64-1.02,1.4-1.34,2.3c-0.32,0.9-0.48,1.9-0.48,3.02c0,1.1,0.16,2.1,0.48,3
		c0.32,0.9,0.76,1.66,1.32,2.28s1.24,1.1,2.02,1.44c0.78,0.32,1.62,0.5,2.52,0.5c0.66,0,1.24-0.08,1.76-0.26
		C372.31,351.66,372.77,351.44,373.17,351.2z"/>
	<path d="M384.33,337.74l-5.54,14h1.2l1.58-4.08h6.58l1.58,4.08h1.2l-5.54-14H384.33z M387.79,346.64h-5.78l2.32-5.98
		c0.16-0.4,0.26-0.76,0.36-1.08c0.1-0.32,0.16-0.48,0.18-0.48h0.02c0.02,0,0.08,0.16,0.18,0.48c0.1,0.32,0.2,0.68,0.36,1.08
		L387.79,346.64z"/>
	<path d="M395.71,343.18c0-0.5,0-0.96-0.02-1.4c-0.02-0.44-0.04-0.82-0.06-1.14s-0.02-0.58-0.04-0.76l-0.02-0.28h0.04
		c0.02,0,0.16,0.22,0.42,0.68s0.66,1.02,1.14,1.74l6.4,9.7h1.04l0.08-13.98h-1.14v8.5c0,0.46,0,0.9,0.02,1.32s0.02,0.8,0.02,1.12
		s0,0.58,0,0.78v0.3h-0.02c-0.02,0-0.16-0.22-0.44-0.68c-0.28-0.46-0.66-1.02-1.12-1.7l-6.38-9.66h-1.06v14h1.14V343.18z"/>
	<polygon points="417.95,350.66 410.79,350.66 410.79,344.78 416.39,344.78 416.39,343.72 410.79,343.72 410.79,338.82 
		417.83,338.82 417.83,337.74 409.65,337.74 409.65,351.74 417.95,351.74 	"/>
	<path d="M438.05,351.74l-5.8-8.34l5.28-5.66h-1.38l-4.72,5.08c-0.22,0.24-0.46,0.5-0.7,0.78c-0.24,0.28-0.48,0.54-0.7,0.78
		c-0.22,0.24-0.4,0.44-0.54,0.6l-0.22,0.24h-0.02c-0.02,0-0.02-0.3,0-0.9c0.02-0.6,0.02-1.4,0.02-2.4v-4.16h-1.14v13.98h1.14v-5.12
		l2.24-2.4l5.22,7.52H438.05z"/>
	<path d="M451.83,339.52c-0.58-0.64-1.26-1.12-2.04-1.46c-0.78-0.34-1.64-0.52-2.56-0.52c-0.9,0-1.74,0.18-2.52,0.52
		c-0.78,0.34-1.46,0.82-2.04,1.46c-0.58,0.64-1.02,1.4-1.34,2.3c-0.32,0.9-0.48,1.9-0.48,3.02l0.06-0.04c0,1.1,0.16,2.1,0.48,3
		c0.32,0.9,0.76,1.66,1.32,2.3c0.56,0.64,1.24,1.14,2.02,1.48c0.78,0.32,1.62,0.5,2.54,0.5c0.9,0,1.74-0.16,2.52-0.48
		c0.78-0.34,1.46-0.82,2.04-1.46c0.58-0.64,1.02-1.4,1.34-2.3c0.32-0.9,0.48-1.9,0.48-3.02c0-1.1-0.16-2.1-0.48-3
		C452.85,340.92,452.41,340.16,451.83,339.52z M452.15,347.34c-0.26,0.76-0.62,1.42-1.08,1.96s-1.02,0.96-1.66,1.24
		c-0.64,0.28-1.34,0.42-2.1,0.42c-0.76,0-1.46-0.14-2.1-0.42c-0.64-0.28-1.2-0.68-1.66-1.22c-0.46-0.54-0.82-1.18-1.08-1.94
		c-0.26-0.76-0.4-1.62-0.4-2.58l0.08-0.06c0-0.96,0.12-1.82,0.38-2.58c0.26-0.76,0.62-1.4,1.08-1.92c0.46-0.52,1-0.92,1.64-1.2
		c0.64-0.28,1.34-0.42,2.1-0.42c0.74,0,1.44,0.14,2.08,0.42c0.64,0.28,1.2,0.68,1.66,1.2c0.46,0.52,0.82,1.16,1.08,1.92
		c0.26,0.76,0.38,1.64,0.38,2.62C452.55,345.72,452.41,346.58,452.15,347.34z"/>
	<path d="M467.53,349.88c0.58-0.6,1.02-1.32,1.34-2.18c0.32-0.86,0.48-1.82,0.48-2.88s-0.16-2.02-0.48-2.9
		c-0.32-0.88-0.78-1.62-1.36-2.24s-1.28-1.1-2.08-1.44c-0.8-0.34-1.68-0.5-2.64-0.5h-0.04h-4.92v14h5.08c0.94,0,1.8-0.16,2.58-0.48
		C466.27,350.94,466.95,350.48,467.53,349.88z M462.95,350.66h-0.02h-3.98v-11.84h3.82c0.78,0,1.5,0.14,2.16,0.42s1.22,0.68,1.7,1.2
		c0.48,0.52,0.86,1.14,1.14,1.88s0.42,1.58,0.42,2.52c0,0.9-0.14,1.72-0.4,2.44c-0.26,0.72-0.62,1.34-1.08,1.84
		c-0.46,0.5-1.02,0.88-1.66,1.14C464.41,350.52,463.71,350.66,462.95,350.66z"/>
	<path d="M477.55,337.74l-5.54,14h1.2l1.58-4.08h6.58l1.58,4.08h1.2l-5.54-14H477.55z M481.01,346.64h-5.78l2.32-5.98
		c0.16-0.4,0.26-0.76,0.36-1.08c0.1-0.32,0.16-0.48,0.18-0.48h0.02c0.02,0,0.08,0.16,0.18,0.48c0.1,0.32,0.2,0.68,0.36,1.08
		L481.01,346.64z"/>
	<polygon points="488.96,337.74 487.83,337.74 487.83,351.74 495.91,351.74 495.91,350.66 488.96,350.66 	"/>
	<rect x="499.46" y="337.74" width="1.14" height="14"/>
	<path d="M510.81,337.74h-1.06l-5.54,14h1.2l1.58-4.08h6.58l1.58,4.08h1.2L510.81,337.74z M507.42,346.64l2.32-5.98
		c0.16-0.4,0.26-0.76,0.36-1.08c0.1-0.32,0.16-0.48,0.18-0.48h0.02c0.02,0,0.08,0.16,0.18,0.48c0.1,0.32,0.2,0.68,0.36,1.08
		l2.36,5.98H507.42z"/>
</g>
<path d="M453.57,292.17l-32.81-19c-0.24-0.14-0.54-0.06-0.68,0.18c-0.09,0.16-0.08,0.35,0.01,0.5l-16.86,9.69v19.88l17.29,9.84
	l17.82-10.17V284.5l14.74,8.53c0.08,0.05,0.17,0.07,0.25,0.07c0.17,0,0.34-0.09,0.43-0.25
	C453.89,292.61,453.81,292.31,453.57,292.17z M425.25,302.77c0,0.55-0.45,1-1,1s-1-0.45-1-1v-15.93l-6.9,10.8
	c0,0.01-0.01,0.01-0.01,0.02c-0.01,0.01-0.02,0.03-0.03,0.04c-0.07,0.09-0.14,0.16-0.23,0.22c-0.01,0.01-0.02,0.02-0.03,0.03
	c-0.01,0.01-0.02,0.01-0.03,0.01c-0.05,0.03-0.11,0.06-0.17,0.08c-0.03,0.01-0.05,0.02-0.08,0.03c-0.08,0.02-0.16,0.03-0.24,0.03
	c0,0-0.01,0-0.01,0c0,0,0,0,0,0s0,0,0,0c0,0-0.01,0-0.01,0c-0.08,0-0.16-0.01-0.24-0.03c-0.03-0.01-0.05-0.02-0.08-0.03
	c-0.06-0.02-0.12-0.04-0.17-0.08c-0.01-0.01-0.02-0.01-0.03-0.01c-0.01-0.01-0.02-0.02-0.03-0.03c-0.09-0.06-0.16-0.13-0.23-0.22
	c-0.01-0.01-0.02-0.03-0.03-0.04c0-0.01-0.01-0.01-0.01-0.02l-6.9-10.8v15.93c0,0.55-0.45,1-1,1s-1-0.45-1-1v-19.35
	c0-0.04,0.02-0.07,0.02-0.1c0.01-0.07,0.02-0.13,0.04-0.2c0.02-0.06,0.04-0.12,0.07-0.17c0.03-0.06,0.06-0.11,0.1-0.16
	c0.04-0.05,0.09-0.1,0.15-0.14c0.03-0.02,0.04-0.05,0.07-0.07c0.02-0.02,0.05-0.02,0.08-0.03c0.06-0.03,0.12-0.05,0.19-0.07
	c0.07-0.02,0.13-0.03,0.19-0.04c0.03,0,0.05-0.02,0.08-0.02c0.04,0,0.07,0.02,0.1,0.02c0.07,0.01,0.13,0.02,0.2,0.04
	c0.06,0.02,0.12,0.04,0.17,0.08c0.06,0.03,0.1,0.06,0.15,0.1c0.05,0.04,0.1,0.09,0.14,0.15c0.02,0.03,0.05,0.04,0.07,0.07l7.9,12.36
	l7.9-12.36c0.02-0.03,0.05-0.05,0.07-0.08c0.04-0.05,0.09-0.1,0.14-0.15c0.05-0.04,0.1-0.08,0.16-0.11
	c0.05-0.03,0.11-0.05,0.17-0.07c0.07-0.02,0.13-0.03,0.2-0.04c0.03,0,0.06-0.02,0.1-0.02c0.03,0,0.05,0.01,0.08,0.02
	c0.07,0.01,0.13,0.02,0.2,0.04c0.07,0.02,0.13,0.04,0.19,0.07c0.02,0.01,0.05,0.01,0.08,0.03c0.03,0.02,0.05,0.05,0.07,0.07
	c0.05,0.04,0.1,0.09,0.15,0.14c0.04,0.05,0.07,0.1,0.1,0.15c0.03,0.06,0.06,0.11,0.08,0.17c0.02,0.07,0.03,0.13,0.04,0.2
	c0,0.04,0.02,0.07,0.02,0.1V302.77z M435.79,303.52c-0.19,0.17-0.43,0.25-0.66,0.25c-0.28,0-0.55-0.11-0.75-0.34l-6.27-7.1
	c-0.37-0.41-0.33-1.05,0.09-1.41c0.41-0.36,1.05-0.33,1.41,0.09l6.27,7.11C436.24,302.52,436.2,303.16,435.79,303.52z
	 M435.88,284.08l-8.24,9.36c-0.2,0.22-0.47,0.34-0.75,0.34c-0.24,0-0.47-0.08-0.66-0.25c-0.41-0.36-0.45-1-0.09-1.41l8.24-9.36
	c0.37-0.41,1-0.46,1.41-0.09C436.2,283.03,436.24,283.67,435.88,284.08z"/>
</svg>
