<?xml version="1.0" encoding="utf-8"?>
<!-- Generator: Adobe Illustrator 28.1.0, SVG Export Plug-In . SVG Version: 6.00 Build 0)  -->
<svg version="1.1" id="Calque_1" xmlns="http://www.w3.org/2000/svg" xmlns:xlink="http://www.w3.org/1999/xlink" x="0px" y="0px"
	 viewBox="0 0 200 200" style="enable-background:new 0 0 200 200;" xml:space="preserve">
<style type="text/css">
	.st0{fill:#FFFFFF;stroke:#030304;stroke-linecap:round;stroke-linejoin:round;stroke-miterlimit:10;}
	.st1{fill:none;}
	.st2{fill:#FFFFFF;}
</style>
<path class="st0" d="M139.78,21"/>
<g>
	<line class="st1" x1="142.87" y1="21.63" x2="52.54" y2="73.49"/>
	<path class="st2" d="M52.54,74.87c-0.46,0-0.93-0.25-1.17-0.69c-0.38-0.65-0.14-1.48,0.5-1.86l90.33-51.9
		c0.65-0.38,1.48-0.17,1.86,0.5c0.38,0.65,0.14,1.48-0.5,1.86l-90.33,51.9C53,74.81,52.78,74.87,52.54,74.87z"/>
</g>
<g>
	<line class="st1" x1="148.55" y1="174.3" x2="148.55" y2="75.25"/>
	<path class="st2" d="M148.55,175.67c-0.77,0-1.36-0.6-1.36-1.36V75.25c0-0.77,0.6-1.36,1.36-1.36s1.36,0.6,1.36,1.36v99.05
		C149.92,175.04,149.29,175.67,148.55,175.67z"/>
</g>
<g>
	<line class="st1" x1="148.55" y1="126.94" x2="59.42" y2="177.8"/>
	<path class="st2" d="M59.42,179.17c-0.46,0-0.93-0.25-1.17-0.69c-0.38-0.65-0.14-1.5,0.52-1.86l89.11-50.85
		c0.65-0.36,1.48-0.14,1.86,0.52c0.38,0.65,0.14,1.5-0.52,1.86l-89.11,50.85C59.89,179.11,59.67,179.17,59.42,179.17z"/>
</g>
<g>
	<line class="st1" x1="12.67" y1="105.18" x2="99.81" y2="154.75"/>
	<path class="st2" d="M99.81,156.12c-0.21,0-0.46-0.06-0.69-0.19l-87.14-49.56c-0.65-0.38-0.88-1.2-0.52-1.86
		c0.38-0.65,1.2-0.88,1.86-0.52l87.14,49.57c0.65,0.38,0.88,1.2,0.52,1.86C100.76,155.88,100.3,156.12,99.81,156.12z"/>
</g>
<g>
	<polyline class="st2" points="52.54,25.96 52.54,127.85 52.54,73.49 	"/>
	<path class="st2" d="M52.54,129.22c-0.77,0-1.36-0.6-1.36-1.36V25.96c0-0.77,0.6-1.36,1.36-1.36c0.77,0,1.36,0.6,1.36,1.36v101.9
		C53.9,128.62,53.3,129.22,52.54,129.22z"/>
</g>
<path class="st2" d="M101.01,189.53c-49.57,0-89.89-40.33-89.89-89.89s40.33-89.9,89.89-89.9s89.9,40.33,89.9,89.89
	S150.58,189.53,101.01,189.53z M101.01,12.5c-48.07,0-87.16,39.1-87.16,87.16s39.1,87.15,87.16,87.15s87.16-39.1,87.16-87.16
	S149.08,12.5,101.01,12.5z"/>
<path class="st2" d="M101.01,196.59c-53.45,0-96.95-43.49-96.95-96.95S47.55,2.68,101.01,2.68s96.95,43.49,96.95,96.95
	S154.48,196.59,101.01,196.59z M101.01,5.42c-51.95,0-94.22,42.27-94.22,94.22s42.27,94.22,94.22,94.22s94.22-42.27,94.22-94.22
	S152.99,5.42,101.01,5.42z"/>
<path class="st2" d="M190.22,97.12l-89.7-51.95c-0.65-0.38-1.48-0.17-1.86,0.5c-0.25,0.44-0.21,0.96,0.02,1.36l-46.1,26.49v54.35
	l47.27,26.91l48.72-27.81v-50.8l40.3,23.32c0.21,0.14,0.46,0.19,0.69,0.19c0.46,0,0.93-0.25,1.17-0.69
	C191.1,98.33,190.87,97.47,190.22,97.12z M112.79,126.1c0,1.5-1.23,2.74-2.74,2.74s-2.74-1.23-2.74-2.74V82.55l-18.86,29.53
	c0,0.02-0.02,0.02-0.02,0.06c-0.02,0.06-0.06,0.08-0.08,0.11c-0.17,0.25-0.38,0.44-0.63,0.6c-0.02,0.02-0.06,0.06-0.08,0.08
	c-0.02,0.02-0.06,0.02-0.08,0.02c-0.14,0.08-0.3,0.17-0.46,0.21c-0.08,0.02-0.14,0.06-0.21,0.08c-0.21,0.06-0.44,0.08-0.65,0.08
	H86.2l0,0l0,0h-0.02c-0.21,0-0.44-0.02-0.65-0.08c-0.08-0.02-0.14-0.06-0.21-0.08c-0.17-0.06-0.33-0.11-0.46-0.21
	c-0.02-0.02-0.06-0.02-0.08-0.02c-0.02-0.02-0.06-0.06-0.08-0.08c-0.21-0.17-0.44-0.36-0.63-0.6c-0.02-0.02-0.06-0.08-0.08-0.11
	c0-0.02-0.02-0.02-0.02-0.06L65.06,82.55v43.55c0,1.5-1.23,2.74-2.74,2.74c-1.5,0-2.74-1.23-2.74-2.74V73.2
	c0-0.11,0.06-0.19,0.06-0.27c0.02-0.19,0.06-0.36,0.11-0.55c0.06-0.17,0.11-0.33,0.19-0.46c0.08-0.17,0.17-0.3,0.27-0.44
	c0.11-0.14,0.25-0.27,0.41-0.38c0.08-0.06,0.11-0.14,0.19-0.19c0.06-0.06,0.14-0.06,0.21-0.08c0.17-0.08,0.33-0.14,0.52-0.19
	c0.17-0.06,0.36-0.08,0.52-0.11c0.08,0,0.14-0.06,0.21-0.06c0.11,0,0.19,0.06,0.27,0.06c0.19,0.02,0.36,0.06,0.55,0.11
	c0.17,0.06,0.33,0.11,0.46,0.21c0.17,0.08,0.3,0.17,0.41,0.27c0.14,0.11,0.27,0.25,0.38,0.41c0.06,0.08,0.14,0.11,0.19,0.19
	l21.6,33.8l21.6-33.8c0.06-0.08,0.14-0.14,0.19-0.19c0.11-0.14,0.25-0.27,0.38-0.41c0.14-0.11,0.27-0.21,0.44-0.3
	c0.14-0.08,0.3-0.14,0.46-0.19c0.19-0.06,0.36-0.08,0.55-0.11c0.11,0,0.19-0.06,0.27-0.06s0.14,0.02,0.21,0.06
	c0.19,0.02,0.36,0.06,0.55,0.11c0.19,0.06,0.36,0.11,0.52,0.19c0.06,0.02,0.14,0.02,0.21,0.08c0.08,0.06,0.14,0.14,0.19,0.19
	c0.14,0.11,0.27,0.25,0.41,0.38c0.11,0.14,0.19,0.27,0.27,0.41c0.08,0.17,0.17,0.3,0.21,0.46c0.06,0.19,0.08,0.36,0.11,0.55
	c0,0.11,0.06,0.19,0.06,0.27L112.79,126.1L112.79,126.1L112.79,126.1z M141.61,128.15c-0.52,0.46-1.17,0.69-1.8,0.69
	c-0.77,0-1.5-0.3-2.05-0.93l-17.14-19.44c-1.01-1.12-0.9-2.87,0.25-3.85c1.12-0.98,2.87-0.9,3.85,0.25l17.14,19.44
	C142.84,125.42,142.73,127.14,141.61,128.15z M141.86,75l-22.52,25.59c-0.55,0.6-1.28,0.93-2.05,0.93c-0.65,0-1.28-0.21-1.8-0.69
	c-1.12-1.01-1.23-2.74-0.25-3.85l22.52-25.59c1.01-1.15,2.74-1.23,3.85-0.25C142.73,72.13,142.84,73.85,141.86,75z"/>
</svg>
