<?xml version="1.0" encoding="utf-8"?>
<!-- Generator: Adobe Illustrator 28.1.0, SVG Export Plug-In . SVG Version: 6.00 Build 0)  -->
<svg version="1.1" id="Calque_1" xmlns="http://www.w3.org/2000/svg" xmlns:xlink="http://www.w3.org/1999/xlink" x="0px" y="0px"
	 viewBox="0 0 400 200" style="enable-background:new 0 0 400 200;" xml:space="preserve">
<style type="text/css">
	.st0{fill:#FFFFFF;}
</style>
<path class="st0" d="M123.2,117.03c-0.24-0.57-0.59-1.06-1.04-1.46s-1-0.7-1.63-0.94c-0.63-0.22-1.35-0.33-2.15-0.33l0.02-0.02h-4.3
	v14.26h2.22v-4.94h2.07c0.8,0,1.5-0.09,2.15-0.31c0.63-0.2,1.17-0.5,1.61-0.91s0.8-0.89,1.04-1.46c0.24-0.57,0.37-1.22,0.37-1.93
	C123.57,118.27,123.44,117.58,123.2,117.03z M120.5,120.82c-0.48,0.44-1.2,0.67-2.11,0.67h-2.06v-5.15h2.06
	c0.87,0,1.57,0.22,2.07,0.67c0.5,0.44,0.78,1.09,0.78,1.93C121.24,119.75,121,120.38,120.5,120.82z"/>
<polygon class="st0" points="140.01,120.16 133.85,120.16 133.85,114.27 131.63,114.27 131.63,128.52 133.85,128.52 133.85,122.3 
	140.01,122.3 140.01,128.52 142.23,128.52 142.23,114.27 140.01,114.27 "/>
<polygon class="st0" points="150.57,121.45 150.57,121.43 150.57,121.42 "/>
<path class="st0" d="M163.3,118.4c-0.33-0.93-0.8-1.68-1.39-2.35c-0.59-0.65-1.3-1.15-2.11-1.48c-0.81-0.35-1.68-0.54-2.65-0.54
	c-0.96,0-1.83,0.19-2.63,0.54c-0.8,0.35-1.48,0.83-2.07,1.48c-0.59,0.65-1.06,1.43-1.39,2.35c-0.31,0.91-0.48,1.93-0.48,3.04
	c0,1.11,0.17,2.13,0.48,3.04c0.33,0.93,0.78,1.68,1.37,2.35c0.59,0.65,1.28,1.17,2.09,1.5c0.81,0.33,1.68,0.52,2.65,0.52
	c0.96,0,1.83-0.17,2.65-0.48c0.81-0.35,1.5-0.83,2.09-1.48c0.59-0.65,1.06-1.43,1.39-2.33c0.33-0.93,0.48-1.94,0.48-3.05
	C163.79,120.34,163.62,119.32,163.3,118.4z M161.21,123.62c-0.2,0.65-0.52,1.2-0.89,1.65c-0.39,0.44-0.85,0.8-1.39,1.04
	c-0.54,0.24-1.13,0.37-1.78,0.37c-0.63,0-1.22-0.13-1.76-0.37c-0.54-0.24-0.98-0.59-1.37-1.04c-0.39-0.44-0.69-1-0.89-1.65
	c-0.2-0.65-0.3-1.39-0.3-2.2l0.04-0.02c0-0.81,0.09-1.56,0.31-2.2c0.2-0.65,0.48-1.2,0.87-1.65c0.39-0.44,0.83-0.8,1.37-1.04
	c0.54-0.24,1.13-0.37,1.76-0.37c0.65,0,1.24,0.13,1.78,0.37c0.54,0.24,0.98,0.59,1.37,1.04c0.39,0.44,0.69,1,0.89,1.65
	c0.2,0.65,0.3,1.39,0.3,2.22C161.53,122.23,161.42,122.97,161.21,123.62z"/>
<polygon class="st0" points="170.9,116.36 175.08,116.36 175.08,128.52 177.3,128.52 177.3,116.36 181.54,116.36 181.54,114.27 
	170.9,114.27 "/>
<path class="st0" d="M201.28,118.4c-0.33-0.93-0.8-1.68-1.39-2.35c-0.59-0.65-1.3-1.15-2.11-1.48c-0.81-0.35-1.68-0.54-2.65-0.54
	c-0.96,0-1.83,0.19-2.63,0.54c-0.8,0.35-1.48,0.83-2.07,1.48c-0.59,0.65-1.06,1.43-1.39,2.35c-0.31,0.91-0.48,1.93-0.48,3.04
	c0,1.11,0.17,2.13,0.48,3.04c0.33,0.93,0.78,1.68,1.37,2.35c0.59,0.65,1.28,1.17,2.09,1.5c0.81,0.33,1.68,0.52,2.65,0.52
	c0.96,0,1.83-0.17,2.65-0.48c0.81-0.35,1.5-0.83,2.09-1.48c0.59-0.65,1.06-1.43,1.39-2.33c0.33-0.91,0.48-1.94,0.48-3.05
	C201.76,120.34,201.61,119.32,201.28,118.4z M199.2,123.62c-0.2,0.65-0.5,1.2-0.89,1.65c-0.39,0.44-0.85,0.8-1.39,1.04
	c-0.54,0.24-1.11,0.37-1.78,0.37c-0.63,0-1.22-0.13-1.76-0.37c-0.54-0.24-0.98-0.59-1.37-1.04c-0.39-0.44-0.7-1-0.89-1.65
	c-0.2-0.65-0.31-1.39-0.31-2.2l0.04-0.02c0-0.81,0.11-1.56,0.31-2.2c0.2-0.65,0.48-1.2,0.87-1.65c0.39-0.44,0.83-0.8,1.37-1.04
	c0.54-0.24,1.11-0.37,1.76-0.37s1.24,0.13,1.78,0.37c0.54,0.24,0.98,0.59,1.37,1.04c0.39,0.44,0.69,1,0.89,1.65
	c0.2,0.65,0.31,1.39,0.31,2.22C199.5,122.23,199.41,122.97,199.2,123.62z"/>
<path class="st0" d="M237.49,122.95c0.83-0.35,1.48-0.85,1.96-1.56c0.46-0.69,0.7-1.54,0.7-2.52c0-0.7-0.13-1.35-0.37-1.91
	c-0.24-0.57-0.59-1.06-1.04-1.46c-0.44-0.41-1-0.7-1.63-0.94c-0.63-0.22-1.35-0.33-2.13-0.33h-4.3v14.26h2.22v-5.11h2.07h0.2
	c0.07,0,0.15,0,0.2-0.02l2.78,5.15h2.48L237.49,122.95z M235.14,121.43v0.02h-2.26v-5.11h2.26c0.87,0,1.56,0.24,2.02,0.7
	s0.7,1.07,0.7,1.83c0,0.72-0.22,1.33-0.7,1.81C236.7,121.19,236.03,121.43,235.14,121.43z"/>
<path class="st0" d="M255.1,114.27h-2.22l-5.37,14.26h2.35l1.17-3.24h5.98l1.17,3.24h2.35L255.1,114.27z M251.75,123.32l1.67-4.67
	c0.07-0.22,0.17-0.44,0.22-0.67c0.06-0.22,0.13-0.43,0.19-0.59c0.06-0.17,0.09-0.31,0.15-0.41l0.04-0.17h0.04l0.04,0.17
	c0.04,0.11,0.07,0.24,0.13,0.41c0.04,0.17,0.09,0.37,0.17,0.59c0.07,0.22,0.15,0.44,0.22,0.67l1.7,4.67H251.75z"/>
<path class="st0" d="M277.46,117.03c-0.24-0.57-0.59-1.06-1.04-1.46s-1-0.7-1.63-0.94c-0.63-0.22-1.35-0.33-2.15-0.33l0.02-0.02
	h-4.3v14.26h2.22v-4.94h2.07c0.8,0,1.5-0.09,2.15-0.31c0.63-0.2,1.17-0.5,1.61-0.91s0.8-0.89,1.04-1.46s0.37-1.22,0.37-1.93
	C277.83,118.27,277.7,117.58,277.46,117.03z M274.78,120.82c-0.48,0.44-1.2,0.67-2.11,0.67h-2.06v-5.15h2.06
	c0.87,0,1.57,0.22,2.07,0.67s0.78,1.09,0.78,1.93C275.5,119.75,275.26,120.38,274.78,120.82z"/>
<polygon class="st0" points="294.29,120.16 288.11,120.16 288.11,114.27 285.89,114.27 285.89,128.52 288.11,128.52 288.11,122.3 
	294.29,122.3 294.29,128.52 296.52,128.52 296.52,114.27 294.29,114.27 "/>
<polygon class="st0" points="307.98,122.06 313.25,122.06 313.25,120.1 307.98,120.1 307.98,116.36 314.7,116.36 314.7,114.27 
	305.75,114.27 305.75,128.52 314.83,128.52 314.83,126.43 307.98,126.43 "/>
<path class="st0" d="M216.4,120.84v1.81h3.68c0,0,0.3,1.22-0.48,2.31c-0.22,0.31-0.52,0.59-0.83,0.83c-0.33,0.24-0.7,0.44-1.17,0.61
	s-0.96,0.24-1.54,0.24c-0.65,0-1.26-0.13-1.81-0.37c-0.56-0.24-1.02-0.59-1.41-1.04c-0.39-0.44-0.69-1-0.91-1.65
	c-0.22-0.65-0.35-1.39-0.35-2.22c0-0.81,0.09-1.56,0.31-2.2c0.2-0.65,0.48-1.2,0.87-1.65c0.39-0.44,0.83-0.8,1.37-1.04
	c0.54-0.24,1.13-0.37,1.78-0.37c0.78,0,1.48,0.19,2.11,0.56c0.63,0.37,1.15,0.93,1.5,1.63l2.2-0.59c-0.54-1.17-1.3-2.07-2.3-2.72
	c-1-0.65-2.18-1-3.55-1.02c-0.96,0-1.83,0.19-2.63,0.54c-0.8,0.35-1.48,0.83-2.07,1.48c-0.59,0.65-1.06,1.43-1.39,2.33
	c-0.33,0.93-0.48,1.93-0.48,3.05c0,1.13,0.17,2.15,0.48,3.05c0.33,0.93,0.78,1.68,1.37,2.31c0.59,0.63,1.28,1.13,2.07,1.46
	c0.8,0.33,1.67,0.52,2.61,0.52c0.52,0,0.98-0.06,1.43-0.19c0.44-0.11,0.85-0.26,1.22-0.46c0.37-0.2,0.67-0.41,0.94-0.63
	c0,0,2.57-1.41,2.59-5.42c0.04-0.41,0.04-0.81-0.04-1.2h-5.59V120.84z"/>
<path class="st0" d="M30.7,90.24c-0.48,0.89-0.89,1.63-1.18,2.22c-0.3,0.59-0.52,1.07-0.67,1.44c-0.15,0.37-0.26,0.63-0.33,0.78
	l-0.11,0.22h-0.07l-0.11-0.22c-0.07-0.15-0.19-0.41-0.37-0.78c-0.19-0.37-0.41-0.85-0.7-1.44s-0.67-1.33-1.15-2.22l-6.26-12.11h-2
	v25.92h2.07V91.5c0-1.18,0-2.37-0.04-3.55s-0.07-2.22-0.11-3.15c-0.04-0.93-0.04-1.67-0.07-2.26l-0.04-0.85h0.04l0.15,0.33
	l0.44,0.89c0.19,0.37,0.37,0.81,0.59,1.3s0.48,1,0.74,1.52l6.15,11.78h1.11l6.15-11.78c0.26-0.52,0.48-1,0.7-1.48
	c0.22-0.48,0.44-0.89,0.63-1.26l0.44-0.89l0.15-0.33h0.04l-0.04,0.89c-0.04,0.59-0.04,1.33-0.07,2.26
	c-0.04,0.93-0.07,1.96-0.11,3.15c-0.04,1.18-0.04,2.37-0.04,3.55v12.52h2.07L39,78.13h-2L30.7,90.24z"/>
<path class="st0" d="M66.55,81.42c-1.07-1.18-2.33-2.07-3.78-2.7c-1.44-0.63-3.04-0.96-4.74-0.96c-1.67,0-3.22,0.33-4.67,0.96
	c-1.44,0.63-2.7,1.52-3.78,2.7c-1.07,1.18-1.89,2.59-2.48,4.26c-0.59,1.67-0.89,3.52-0.89,5.59l0.11-0.07c0,2.04,0.3,3.89,0.89,5.55
	c0.59,1.67,1.41,3.07,2.44,4.26c1.04,1.18,2.3,2.11,3.74,2.74c1.44,0.59,3,0.93,4.7,0.93c1.67,0,3.22-0.3,4.67-0.89
	c1.44-0.63,2.7-1.52,3.78-2.7c1.07-1.18,1.89-2.59,2.48-4.26c0.59-1.67,0.89-3.52,0.89-5.59c0-2.04-0.3-3.89-0.89-5.55
	C68.44,84.02,67.62,82.61,66.55,81.42z M67.14,95.9c-0.48,1.41-1.15,2.63-2,3.63c-0.85,1-1.89,1.78-3.07,2.3
	c-1.18,0.52-2.48,0.78-3.89,0.78c-1.41,0-2.7-0.26-3.89-0.78c-1.18-0.52-2.22-1.26-3.07-2.26s-1.52-2.18-2-3.59
	c-0.48-1.41-0.74-3-0.74-4.78l0.15-0.11c0-1.78,0.22-3.37,0.7-4.78c0.48-1.41,1.15-2.59,2-3.55c0.85-0.96,1.85-1.7,3.04-2.22
	c1.18-0.52,2.48-0.78,3.89-0.78c1.37,0,2.67,0.26,3.85,0.78c1.18,0.52,2.22,1.26,3.07,2.22c0.85,0.96,1.52,2.15,2,3.55
	c0.48,1.41,0.7,3.04,0.7,4.85C67.88,92.9,67.62,94.5,67.14,95.9z"/>
<path class="st0" d="M91.73,90.79c0.89-1.22,1.33-2.78,1.33-4.63c0-1.22-0.22-2.33-0.63-3.33c-0.41-1-1-1.85-1.78-2.56
	c-0.78-0.7-1.74-1.22-2.85-1.59s-2.37-0.56-3.74-0.56h-6.55v25.92h2.11v-10h4.41c0.63,0,1.22-0.04,1.78-0.11l5.7,10.11h2.37
	l-5.92-10.59C89.58,92.9,90.84,92.01,91.73,90.79z M84.21,92.16h-4.48V80.13h4.52c2.11,0,3.74,0.52,4.92,1.56
	c1.18,1.04,1.78,2.52,1.78,4.41c0,1.81-0.59,3.3-1.74,4.41C88.06,91.61,86.4,92.16,84.21,92.16z"/>
<path class="st0" d="M117.17,103.05c0.74-0.44,1.37-0.93,1.85-1.44c0,0,4.55-3.59,3.15-10.7h-9.15v1.85h7.29
	c0,0,0.94,2.67-1.11,6.29c-0.41,0.7-1.15,1.22-1.89,1.74c-0.74,0.52-1.59,0.96-2.56,1.3c-0.96,0.33-2.04,0.52-3.18,0.52
	c-1.41,0-2.7-0.26-3.89-0.78c-1.18-0.52-2.22-1.26-3.11-2.26c-0.89-1-1.56-2.18-2.04-3.59c-0.48-1.41-0.74-3-0.74-4.78
	c0-1.78,0.22-3.37,0.7-4.78c0.48-1.41,1.15-2.59,2-3.55c0.85-0.96,1.85-1.7,3.04-2.22c1.18-0.52,2.48-0.78,3.89-0.78
	c1.81,0,3.44,0.44,4.89,1.33c1.44,0.89,2.56,2.18,3.33,3.89l2.11-0.56c-0.93-2.07-2.26-3.7-4-4.89c-1.74-1.18-3.85-1.81-6.33-1.85
	c-1.67,0-3.22,0.33-4.67,0.96c-1.44,0.63-2.7,1.52-3.78,2.7c-1.07,1.18-1.89,2.59-2.48,4.26c-0.59,1.67-0.89,3.52-0.89,5.59
	c0,2.04,0.3,3.89,0.89,5.55c0.59,1.67,1.41,3.07,2.44,4.22c1.04,1.15,2.3,2.04,3.74,2.67c1.44,0.59,3,0.93,4.67,0.93
	c1.22,0,2.3-0.15,3.26-0.48C115.57,103.9,116.43,103.49,117.17,103.05z"/>
<path class="st0" d="M137.83,78.13l-10.26,25.92h2.22l2.93-7.55h12.18l2.93,7.55h2.22l-10.26-25.92H137.83z M144.23,94.61h-10.7
	l4.3-11.07c0.3-0.74,0.48-1.41,0.67-2c0.19-0.59,0.3-0.89,0.33-0.89h0.04c0.04,0,0.15,0.3,0.33,0.89c0.19,0.59,0.37,1.26,0.67,2
	L144.23,94.61z"/>
<path class="st0" d="M158.9,88.2c0-0.93,0-1.78-0.04-2.59c-0.04-0.81-0.07-1.52-0.11-2.11c-0.04-0.59-0.04-1.07-0.07-1.41
	l-0.04-0.52h0.07c0.04,0,0.3,0.41,0.78,1.26c0.48,0.85,1.22,1.89,2.11,3.22l11.85,17.96h1.93l0.15-25.88h-2.11v15.74
	c0,0.85,0,1.67,0.04,2.44c0.04,0.78,0.04,1.48,0.04,2.07s0,1.07,0,1.44v0.56h-0.04c-0.04,0-0.3-0.41-0.81-1.26s-1.22-1.89-2.07-3.15
	l-11.81-17.88h-1.96v25.92h2.11L158.9,88.2L158.9,88.2z"/>
<polygon class="st0" points="200.07,102.05 186.82,102.05 186.82,91.16 197.19,91.16 197.19,89.2 186.82,89.2 186.82,80.13 
	199.85,80.13 199.85,78.13 184.71,78.13 184.71,104.05 200.07,104.05 "/>
<path class="st0" d="M237.29,104.05l-10.74-15.44l9.78-10.48h-2.56l-8.74,9.41c-0.41,0.44-0.85,0.93-1.3,1.44
	c-0.44,0.52-0.89,1-1.3,1.44s-0.74,0.81-1,1.11l-0.41,0.44H221c-0.04,0-0.04-0.56,0-1.67c0.04-1.11,0.04-2.59,0.04-4.44v-7.7h-2.11
	v25.88h2.11v-9.48l4.15-4.44l9.66,13.92H237.29z"/>
<path class="st0" d="M262.8,81.42c-1.07-1.18-2.33-2.07-3.78-2.7c-1.44-0.63-3.04-0.96-4.74-0.96c-1.67,0-3.22,0.33-4.67,0.96
	c-1.44,0.63-2.7,1.52-3.78,2.7c-1.07,1.18-1.89,2.59-2.48,4.26c-0.59,1.67-0.89,3.52-0.89,5.59l0.11-0.07c0,2.04,0.3,3.89,0.89,5.55
	c0.59,1.67,1.41,3.07,2.44,4.26c1.04,1.18,2.3,2.11,3.74,2.74c1.44,0.59,3,0.93,4.7,0.93c1.67,0,3.22-0.3,4.67-0.89
	c1.44-0.63,2.7-1.52,3.78-2.7c1.07-1.18,1.89-2.59,2.48-4.26c0.59-1.67,0.89-3.52,0.89-5.59c0-2.04-0.3-3.89-0.89-5.55
	C264.69,84.02,263.87,82.61,262.8,81.42z M263.39,95.9c-0.48,1.41-1.15,2.63-2,3.63c-0.85,1-1.89,1.78-3.07,2.3
	c-1.18,0.52-2.48,0.78-3.89,0.78c-1.41,0-2.7-0.26-3.89-0.78c-1.18-0.52-2.22-1.26-3.07-2.26c-0.85-1-1.52-2.18-2-3.59
	c-0.48-1.41-0.74-3-0.74-4.78l0.15-0.11c0-1.78,0.22-3.37,0.7-4.78c0.48-1.41,1.15-2.59,2-3.55c0.85-0.96,1.85-1.7,3.04-2.22
	c1.18-0.52,2.48-0.78,3.89-0.78c1.37,0,2.67,0.26,3.85,0.78c1.18,0.52,2.22,1.26,3.07,2.22c0.85,0.96,1.52,2.15,2,3.55
	c0.48,1.41,0.7,3.04,0.7,4.85C264.13,92.9,263.87,94.5,263.39,95.9z"/>
<path class="st0" d="M291.87,100.6c1.07-1.11,1.89-2.44,2.48-4.04c0.59-1.59,0.89-3.37,0.89-5.33s-0.3-3.74-0.89-5.37
	s-1.44-3-2.52-4.15c-1.07-1.15-2.37-2.04-3.85-2.67c-1.48-0.63-3.11-0.93-4.89-0.93h-0.07h-9.11v25.92h9.41
	c1.74,0,3.33-0.3,4.78-0.89C289.54,102.57,290.79,101.72,291.87,100.6z M283.39,102.05h-0.04h-7.37V80.13h7.07
	c1.44,0,2.78,0.26,4,0.78s2.26,1.26,3.15,2.22c0.89,0.96,1.59,2.11,2.11,3.48c0.52,1.37,0.78,2.93,0.78,4.67
	c0,1.67-0.26,3.18-0.74,4.52c-0.48,1.33-1.15,2.48-2,3.41c-0.85,0.93-1.89,1.63-3.07,2.11C286.09,101.79,284.8,102.05,283.39,102.05
	z"/>
<path class="st0" d="M310.42,78.13l-10.26,25.92h2.22l2.93-7.55h12.18l2.93,7.55h2.22l-10.26-25.92H310.42z M316.83,94.61h-10.7
	l4.3-11.07c0.3-0.74,0.48-1.41,0.67-2c0.19-0.59,0.3-0.89,0.33-0.89h0.04c0.04,0,0.15,0.3,0.33,0.89c0.19,0.59,0.37,1.26,0.67,2
	L316.83,94.61z"/>
<polygon class="st0" points="331.54,78.13 329.45,78.13 329.45,104.05 344.41,104.05 344.41,102.05 331.54,102.05 "/>
<rect x="350.99" y="78.13" class="st0" width="2.11" height="25.92"/>
<path class="st0" d="M372,78.13h-1.96l-10.26,25.92H362l2.93-7.55h12.18l2.93,7.55h2.22L372,78.13z M365.72,94.61l4.3-11.07
	c0.3-0.74,0.48-1.41,0.67-2c0.19-0.59,0.3-0.89,0.33-0.89h0.04c0.04,0,0.15,0.3,0.33,0.89c0.19,0.59,0.37,1.26,0.67,2l4.37,11.07
	H365.72z"/>
</svg>
