<?xml version="1.0" encoding="utf-8"?>
<!-- Generator: Adobe Illustrator 28.1.0, SVG Export Plug-In . SVG Version: 6.00 Build 0)  -->
<svg version="1.1" id="Calque_1" xmlns="http://www.w3.org/2000/svg" xmlns:xlink="http://www.w3.org/1999/xlink" x="0px" y="0px"
	 viewBox="0 0 300 75" style="enable-background:new 0 0 300 75;" xml:space="preserve">
<style type="text/css">
	.st0{fill:#FFFFFF;}
</style>
<path class="st0" d="M88.25,48.26c-0.19-0.46-0.48-0.85-0.84-1.18c-0.36-0.32-0.81-0.56-1.31-0.76c-0.51-0.18-1.09-0.27-1.73-0.27
	l0.02-0.02h-3.46v11.49h1.79v-3.98h1.67c0.64,0,1.21-0.07,1.73-0.25c0.51-0.16,0.94-0.4,1.3-0.73c0.35-0.33,0.64-0.72,0.84-1.18
	c0.19-0.46,0.3-0.98,0.3-1.55C88.55,49.26,88.45,48.71,88.25,48.26z M86.08,51.32c-0.39,0.35-0.97,0.54-1.7,0.54h-1.66v-4.15h1.66
	c0.7,0,1.26,0.18,1.67,0.54c0.4,0.35,0.63,0.88,0.63,1.55C86.68,50.45,86.48,50.96,86.08,51.32z"/>
<polygon class="st0" points="101.8,50.78 96.83,50.78 96.83,46.04 95.05,46.04 95.05,57.52 96.83,57.52 96.83,52.51 101.8,52.51 
	101.8,57.52 103.58,57.52 103.58,46.04 101.8,46.04 "/>
<polygon class="st0" points="110.3,51.82 110.3,51.81 110.3,51.8 "/>
<path class="st0" d="M120.56,49.37c-0.27-0.75-0.64-1.35-1.12-1.89c-0.48-0.52-1.05-0.93-1.7-1.19c-0.65-0.28-1.35-0.43-2.13-0.43
	c-0.77,0-1.47,0.15-2.12,0.43s-1.19,0.67-1.67,1.19c-0.48,0.52-0.85,1.15-1.12,1.89c-0.25,0.73-0.39,1.55-0.39,2.45
	s0.14,1.72,0.39,2.45c0.27,0.75,0.63,1.35,1.1,1.89c0.48,0.52,1.03,0.94,1.68,1.21c0.65,0.27,1.35,0.42,2.13,0.42
	c0.77,0,1.47-0.14,2.13-0.39c0.65-0.28,1.21-0.67,1.68-1.19s0.85-1.15,1.12-1.88c0.27-0.75,0.39-1.56,0.39-2.46
	C120.95,50.93,120.81,50.11,120.56,49.37z M118.87,53.57c-0.16,0.52-0.42,0.97-0.72,1.33c-0.31,0.35-0.68,0.64-1.12,0.84
	c-0.43,0.19-0.91,0.3-1.43,0.3c-0.51,0-0.98-0.1-1.42-0.3c-0.43-0.19-0.79-0.48-1.1-0.84c-0.31-0.35-0.56-0.81-0.72-1.33
	c-0.16-0.52-0.24-1.12-0.24-1.77l0.03-0.02c0-0.65,0.07-1.26,0.25-1.77c0.16-0.52,0.39-0.97,0.7-1.33c0.31-0.35,0.67-0.64,1.1-0.84
	c0.43-0.19,0.91-0.3,1.42-0.3c0.52,0,1,0.1,1.43,0.3c0.43,0.19,0.79,0.48,1.1,0.84c0.31,0.35,0.56,0.81,0.72,1.33
	c0.16,0.52,0.24,1.12,0.24,1.79C119.13,52.45,119.04,53.05,118.87,53.57z"/>
<polygon class="st0" points="126.68,47.72 130.05,47.72 130.05,57.52 131.83,57.52 131.83,47.72 135.25,47.72 135.25,46.04 
	126.68,46.04 "/>
<path class="st0" d="M151.15,49.37c-0.27-0.75-0.64-1.35-1.12-1.89c-0.48-0.52-1.05-0.93-1.7-1.19c-0.65-0.28-1.35-0.43-2.13-0.43
	c-0.77,0-1.47,0.15-2.12,0.43c-0.64,0.28-1.19,0.67-1.67,1.19c-0.48,0.52-0.85,1.15-1.12,1.89c-0.25,0.73-0.39,1.55-0.39,2.45
	s0.14,1.72,0.39,2.45c0.27,0.75,0.63,1.35,1.1,1.89c0.48,0.52,1.03,0.94,1.68,1.21c0.65,0.27,1.35,0.42,2.13,0.42
	c0.77,0,1.47-0.14,2.13-0.39c0.65-0.28,1.21-0.67,1.68-1.19s0.85-1.15,1.12-1.88c0.27-0.73,0.39-1.56,0.39-2.46
	C151.54,50.93,151.42,50.11,151.15,49.37z M149.48,53.57c-0.16,0.52-0.4,0.97-0.72,1.33c-0.31,0.35-0.68,0.64-1.12,0.84
	c-0.43,0.19-0.89,0.3-1.43,0.3c-0.51,0-0.98-0.1-1.42-0.3c-0.43-0.19-0.79-0.48-1.1-0.84c-0.31-0.35-0.56-0.81-0.72-1.33
	c-0.16-0.52-0.25-1.12-0.25-1.77l0.03-0.02c0-0.65,0.09-1.26,0.25-1.77c0.16-0.52,0.39-0.97,0.7-1.33c0.31-0.35,0.67-0.64,1.1-0.84
	c0.43-0.19,0.89-0.3,1.42-0.3c0.52,0,1,0.1,1.43,0.3c0.43,0.19,0.79,0.48,1.1,0.84c0.31,0.35,0.56,0.81,0.72,1.33
	s0.25,1.12,0.25,1.79C149.72,52.45,149.64,53.05,149.48,53.57z"/>
<path class="st0" d="M180.32,53.03c0.67-0.28,1.19-0.68,1.58-1.26c0.37-0.56,0.56-1.24,0.56-2.03c0-0.56-0.1-1.09-0.3-1.54
	c-0.19-0.46-0.48-0.85-0.84-1.18c-0.35-0.33-0.81-0.56-1.31-0.76c-0.51-0.18-1.09-0.27-1.72-0.27h-3.46v11.49h1.79v-4.12h1.67h0.16
	c0.06,0,0.12,0,0.16-0.02l2.24,4.15h2L180.32,53.03z M178.43,51.81v0.02h-1.82v-4.12h1.82c0.7,0,1.26,0.19,1.63,0.56
	c0.37,0.37,0.56,0.86,0.56,1.47c0,0.58-0.18,1.07-0.56,1.46C179.68,51.61,179.14,51.81,178.43,51.81z"/>
<path class="st0" d="M194.5,46.04h-1.79l-4.33,11.49h1.89l0.94-2.61h4.82l0.94,2.61h1.89L194.5,46.04z M191.81,53.33l1.35-3.76
	c0.06-0.18,0.14-0.35,0.18-0.54c0.05-0.18,0.1-0.35,0.15-0.48c0.05-0.14,0.07-0.25,0.12-0.33l0.03-0.14h0.03l0.03,0.14
	c0.03,0.09,0.06,0.19,0.1,0.33c0.03,0.14,0.07,0.3,0.14,0.48c0.06,0.18,0.12,0.35,0.18,0.54l1.37,3.76H191.81z"/>
<path class="st0" d="M212.52,48.26c-0.19-0.46-0.48-0.85-0.84-1.18s-0.81-0.56-1.31-0.76c-0.51-0.18-1.09-0.27-1.73-0.27l0.02-0.02
	h-3.46v11.49h1.79v-3.98h1.67c0.64,0,1.21-0.07,1.73-0.25c0.51-0.16,0.94-0.4,1.3-0.73c0.35-0.33,0.64-0.72,0.84-1.18
	s0.3-0.98,0.3-1.55C212.81,49.26,212.71,48.71,212.52,48.26z M210.36,51.32c-0.39,0.35-0.97,0.54-1.7,0.54H207v-4.15h1.66
	c0.7,0,1.26,0.18,1.67,0.54c0.4,0.36,0.63,0.88,0.63,1.55C210.94,50.45,210.74,50.96,210.36,51.32z"/>
<polygon class="st0" points="226.07,50.78 221.1,50.78 221.1,46.04 219.31,46.04 219.31,57.52 221.1,57.52 221.1,52.51 
	226.07,52.51 226.07,57.52 227.87,57.52 227.87,46.04 226.07,46.04 "/>
<polygon class="st0" points="237.1,52.31 241.35,52.31 241.35,50.74 237.1,50.74 237.1,47.72 242.52,47.72 242.52,46.04 
	235.31,46.04 235.31,57.52 242.62,57.52 242.62,55.83 237.1,55.83 "/>
<path class="st0" d="M163.33,51.33v1.46h2.96c0,0,0.24,0.98-0.39,1.86c-0.18,0.25-0.42,0.48-0.67,0.67
	c-0.27,0.19-0.56,0.35-0.94,0.49S163.52,56,163.06,56c-0.52,0-1.01-0.1-1.46-0.3c-0.45-0.19-0.82-0.48-1.14-0.84
	c-0.31-0.35-0.56-0.81-0.73-1.33c-0.18-0.52-0.28-1.12-0.28-1.79c0-0.65,0.07-1.26,0.25-1.77c0.16-0.52,0.39-0.97,0.7-1.33
	c0.31-0.35,0.67-0.64,1.1-0.84c0.43-0.19,0.91-0.3,1.43-0.3c0.63,0,1.19,0.15,1.7,0.45c0.51,0.3,0.93,0.75,1.21,1.31l1.77-0.48
	c-0.43-0.94-1.05-1.67-1.85-2.19c-0.81-0.52-1.76-0.81-2.86-0.82c-0.77,0-1.47,0.15-2.12,0.43c-0.64,0.28-1.19,0.67-1.67,1.19
	c-0.48,0.52-0.85,1.15-1.12,1.88c-0.27,0.75-0.39,1.55-0.39,2.46c0,0.91,0.14,1.73,0.39,2.46c0.27,0.75,0.63,1.35,1.1,1.86
	c0.48,0.51,1.03,0.91,1.67,1.18c0.64,0.27,1.35,0.42,2.1,0.42c0.42,0,0.79-0.05,1.15-0.15c0.35-0.09,0.68-0.21,0.98-0.37
	c0.3-0.16,0.54-0.33,0.76-0.51c0,0,2.07-1.14,2.09-4.37c0.03-0.33,0.03-0.65-0.03-0.97h-4.5v0.03H163.33z"/>
<path class="st0" d="M13.74,26.68c-0.39,0.72-0.72,1.31-0.95,1.79c-0.24,0.48-0.42,0.86-0.54,1.16s-0.21,0.51-0.27,0.63l-0.09,0.18
	h-0.06l-0.09-0.18c-0.06-0.12-0.15-0.33-0.3-0.63c-0.15-0.3-0.33-0.68-0.56-1.16s-0.54-1.07-0.93-1.79l-5.04-9.76H3.31v20.88h1.67
	V27.7c0-0.95,0-1.91-0.03-2.86c-0.03-0.95-0.06-1.79-0.09-2.54c-0.03-0.75-0.03-1.35-0.06-1.82l-0.03-0.68H4.8l0.12,0.27l0.35,0.72
	c0.15,0.3,0.3,0.65,0.48,1.05c0.18,0.39,0.39,0.81,0.6,1.22l4.95,9.49h0.89l4.95-9.49c0.21-0.42,0.39-0.81,0.56-1.19
	s0.35-0.72,0.51-1.01l0.35-0.72l0.12-0.27h0.03l-0.03,0.72c-0.03,0.48-0.03,1.07-0.06,1.82c-0.03,0.75-0.06,1.58-0.09,2.54
	c-0.03,0.95-0.03,1.91-0.03,2.86v10.09h1.67l0.24-20.95h-1.61L13.74,26.68z"/>
<path class="st0" d="M42.62,19.58c-0.86-0.95-1.88-1.67-3.04-2.17c-1.16-0.51-2.45-0.77-3.82-0.77c-1.35,0-2.59,0.27-3.76,0.77
	c-1.16,0.51-2.17,1.22-3.04,2.17c-0.86,0.95-1.52,2.09-2,3.43c-0.48,1.35-0.72,2.84-0.72,4.5l0.09-0.06c0,1.64,0.24,3.13,0.72,4.47
	c0.48,1.35,1.14,2.47,1.97,3.43c0.84,0.95,1.85,1.7,3.01,2.21c1.16,0.48,2.42,0.75,3.79,0.75c1.35,0,2.59-0.24,3.76-0.72
	c1.16-0.51,2.17-1.22,3.04-2.17c0.86-0.95,1.52-2.09,2-3.43c0.48-1.35,0.72-2.84,0.72-4.5c0-1.64-0.24-3.13-0.72-4.47
	C44.14,21.67,43.48,20.54,42.62,19.58z M43.1,31.24c-0.39,1.14-0.93,2.12-1.61,2.92c-0.68,0.81-1.52,1.43-2.47,1.85
	c-0.95,0.42-2,0.63-3.13,0.63s-2.17-0.21-3.13-0.63c-0.95-0.42-1.79-1.01-2.47-1.82c-0.68-0.81-1.22-1.76-1.61-2.89
	c-0.39-1.14-0.6-2.42-0.6-3.85l0.12-0.09c0-1.43,0.18-2.71,0.56-3.85c0.39-1.14,0.93-2.09,1.61-2.86c0.68-0.77,1.49-1.37,2.45-1.79
	c0.95-0.42,2-0.63,3.13-0.63c1.1,0,2.15,0.21,3.1,0.63c0.95,0.42,1.79,1.01,2.47,1.79c0.68,0.77,1.22,1.73,1.61,2.86
	c0.39,1.14,0.56,2.45,0.56,3.91C43.69,28.82,43.48,30.11,43.1,31.24z"/>
<path class="st0" d="M62.9,27.13c0.72-0.98,1.07-2.24,1.07-3.73c0-0.98-0.18-1.88-0.51-2.68c-0.33-0.81-0.81-1.49-1.43-2.06
	c-0.63-0.56-1.4-0.98-2.3-1.28c-0.89-0.3-1.91-0.45-3.01-0.45h-5.28V37.8h1.7v-8.06h3.55c0.51,0,0.98-0.03,1.43-0.09l4.59,8.14h1.91
	l-4.77-8.53C61.17,28.82,62.19,28.11,62.9,27.13z M56.85,28.23h-3.61v-9.69h3.64c1.7,0,3.01,0.42,3.96,1.26
	c0.95,0.84,1.43,2.03,1.43,3.55c0,1.46-0.48,2.66-1.4,3.55C59.95,27.79,58.61,28.23,56.85,28.23z"/>
<path class="st0" d="M83.4,37c0.6-0.35,1.1-0.75,1.49-1.16c0,0,3.67-2.89,2.54-8.62h-7.37v1.49h5.87c0,0,0.76,2.15-0.89,5.07
	c-0.33,0.56-0.93,0.98-1.52,1.4c-0.6,0.42-1.28,0.77-2.06,1.05c-0.77,0.27-1.64,0.42-2.56,0.42c-1.14,0-2.17-0.21-3.13-0.63
	C74.8,35.6,73.96,35,73.25,34.2s-1.26-1.76-1.64-2.89c-0.39-1.14-0.6-2.42-0.6-3.85s0.18-2.71,0.56-3.85
	c0.39-1.14,0.93-2.09,1.61-2.86c0.68-0.77,1.49-1.37,2.45-1.79c0.95-0.42,2-0.63,3.13-0.63c1.46,0,2.77,0.35,3.94,1.07
	c1.16,0.72,2.06,1.76,2.68,3.13l1.7-0.45c-0.75-1.67-1.82-2.98-3.22-3.94c-1.4-0.95-3.1-1.46-5.1-1.49c-1.35,0-2.59,0.27-3.76,0.77
	c-1.16,0.51-2.17,1.22-3.04,2.17c-0.86,0.95-1.52,2.09-2,3.43c-0.48,1.35-0.72,2.84-0.72,4.5c0,1.64,0.24,3.13,0.72,4.47
	c0.48,1.35,1.14,2.47,1.97,3.4c0.84,0.93,1.85,1.64,3.01,2.15c1.16,0.48,2.42,0.75,3.76,0.75c0.98,0,1.85-0.12,2.63-0.39
	C82.11,37.69,82.8,37.36,83.4,37z"/>
<path class="st0" d="M100.04,16.93l-8.26,20.88h1.79l2.36-6.08h9.81l2.36,6.08h1.79l-8.26-20.88H100.04z M105.19,30.2h-8.62
	l3.46-8.92c0.24-0.6,0.39-1.14,0.54-1.61c0.15-0.48,0.24-0.72,0.27-0.72h0.03c0.03,0,0.12,0.24,0.27,0.72
	c0.15,0.48,0.3,1.01,0.54,1.61L105.19,30.2z"/>
<path class="st0" d="M117.01,25.04c0-0.75,0-1.43-0.03-2.09c-0.03-0.65-0.06-1.22-0.09-1.7c-0.03-0.48-0.03-0.86-0.06-1.14
	l-0.03-0.42h0.06c0.03,0,0.24,0.33,0.63,1.01c0.39,0.68,0.98,1.52,1.7,2.59l9.55,14.47h1.55l0.12-20.85h-1.7v12.68
	c0,0.68,0,1.35,0.03,1.97c0.03,0.63,0.03,1.19,0.03,1.67s0,0.86,0,1.16v0.45h-0.03c-0.03,0-0.24-0.33-0.65-1.01
	c-0.41-0.68-0.98-1.52-1.67-2.54l-9.51-14.4h-1.58v20.88h1.7L117.01,25.04L117.01,25.04z"/>
<polygon class="st0" points="150.18,36.2 139.5,36.2 139.5,27.42 147.86,27.42 147.86,25.84 139.5,25.84 139.5,18.54 150,18.54 
	150,16.93 137.8,16.93 137.8,37.81 150.18,37.81 "/>
<path class="st0" d="M180.16,37.81l-8.65-12.44l7.88-8.44h-2.06l-7.04,7.58c-0.33,0.35-0.68,0.75-1.05,1.16
	c-0.35,0.42-0.72,0.81-1.05,1.16c-0.33,0.35-0.6,0.65-0.81,0.89l-0.33,0.35h-0.02c-0.03,0-0.03-0.45,0-1.35
	c0.03-0.89,0.03-2.09,0.03-3.58v-6.2h-1.7V37.8h1.7v-7.64l3.34-3.58l7.78,11.21L180.16,37.81L180.16,37.81z"/>
<path class="st0" d="M200.71,19.58c-0.86-0.95-1.88-1.67-3.04-2.17c-1.16-0.51-2.45-0.77-3.82-0.77c-1.35,0-2.59,0.27-3.76,0.77
	c-1.16,0.51-2.17,1.22-3.04,2.17c-0.86,0.95-1.52,2.09-2,3.43c-0.48,1.35-0.72,2.84-0.72,4.5l0.09-0.06c0,1.64,0.24,3.13,0.72,4.47
	c0.48,1.35,1.14,2.47,1.97,3.43c0.84,0.95,1.85,1.7,3.01,2.21c1.16,0.48,2.42,0.75,3.79,0.75c1.35,0,2.59-0.24,3.76-0.72
	c1.16-0.51,2.17-1.22,3.04-2.17c0.86-0.95,1.52-2.09,2-3.43c0.48-1.35,0.72-2.84,0.72-4.5c0-1.64-0.24-3.13-0.72-4.47
	C202.23,21.67,201.57,20.54,200.71,19.58z M201.18,31.24c-0.39,1.14-0.93,2.12-1.61,2.92c-0.68,0.81-1.52,1.43-2.47,1.85
	c-0.95,0.42-2,0.63-3.13,0.63s-2.17-0.21-3.13-0.63c-0.95-0.42-1.79-1.01-2.47-1.82c-0.68-0.81-1.22-1.76-1.61-2.89
	c-0.39-1.14-0.6-2.42-0.6-3.85l0.12-0.09c0-1.43,0.18-2.71,0.56-3.85c0.39-1.14,0.93-2.09,1.61-2.86c0.68-0.77,1.49-1.37,2.45-1.79
	c0.95-0.42,2-0.63,3.13-0.63c1.1,0,2.15,0.21,3.1,0.63c0.95,0.42,1.79,1.01,2.47,1.79c0.68,0.77,1.22,1.73,1.61,2.86
	c0.39,1.14,0.56,2.45,0.56,3.91C201.78,28.82,201.57,30.11,201.18,31.24z"/>
<path class="st0" d="M224.12,35.03c0.86-0.89,1.52-1.97,2-3.25c0.48-1.28,0.72-2.71,0.72-4.29s-0.24-3.01-0.72-4.33
	s-1.16-2.42-2.03-3.34c-0.86-0.93-1.91-1.64-3.1-2.15c-1.19-0.51-2.51-0.75-3.94-0.75H217h-7.34v20.88h7.58
	c1.4,0,2.68-0.24,3.85-0.72C222.25,36.61,223.25,35.93,224.12,35.03z M217.29,36.2h-0.03h-5.94V18.54h5.7
	c1.16,0,2.24,0.21,3.22,0.63c0.98,0.42,1.82,1.01,2.54,1.79c0.72,0.77,1.28,1.7,1.7,2.8s0.63,2.36,0.63,3.76
	c0,1.35-0.21,2.56-0.6,3.64c-0.39,1.07-0.93,2-1.61,2.75c-0.68,0.75-1.52,1.31-2.47,1.7C219.47,35.99,218.43,36.2,217.29,36.2z"/>
<path class="st0" d="M239.07,16.93l-8.26,20.88h1.79l2.36-6.08h9.81l2.36,6.08h1.79l-8.26-20.88H239.07z M244.23,30.2h-8.62
	l3.46-8.92c0.24-0.6,0.39-1.14,0.54-1.61c0.15-0.48,0.24-0.72,0.27-0.72h0.03c0.03,0,0.12,0.24,0.27,0.72
	c0.15,0.48,0.3,1.01,0.54,1.61L244.23,30.2z"/>
<polygon class="st0" points="256.08,16.93 254.4,16.93 254.4,37.81 266.45,37.81 266.45,36.2 256.08,36.2 "/>
<rect x="271.75" y="16.93" class="st0" width="1.7" height="20.88"/>
<path class="st0" d="M288.67,16.93h-1.58l-8.26,20.88h1.79l2.36-6.08h9.81l2.36,6.08h1.79L288.67,16.93z M283.61,30.2l3.46-8.92
	c0.24-0.6,0.39-1.14,0.54-1.61c0.15-0.48,0.24-0.72,0.27-0.72h0.03c0.03,0,0.12,0.24,0.27,0.72c0.15,0.48,0.3,1.01,0.54,1.61
	l3.52,8.92H283.61z"/>
</svg>
